G04 EAGLE Gerber X2 export*
%TF.Part,Single*%
%TF.FileFunction,Profile,NP*%
%TF.FilePolarity,Positive*%
%TF.GenerationSoftware,Autodesk,EAGLE,9.1.2*%
%TF.CreationDate,2020-01-29T09:53:54Z*%
G75*
%MOMM*%
%FSLAX34Y34*%
%LPD*%
%AMOC8*
5,1,8,0,0,1.08239X$1,22.5*%
G01*
%ADD10C,0.254000*%


D10*
X0Y0D02*
X254087Y0D01*
X254087Y253900D01*
X0Y253900D01*
X0Y0D01*
X37860Y228064D02*
X37784Y226996D01*
X37631Y225935D01*
X37403Y224888D01*
X37101Y223860D01*
X36727Y222856D01*
X36282Y221881D01*
X35768Y220941D01*
X35189Y220040D01*
X34547Y219182D01*
X33845Y218372D01*
X33088Y217615D01*
X32278Y216913D01*
X31420Y216271D01*
X30519Y215692D01*
X29579Y215178D01*
X28604Y214733D01*
X27600Y214359D01*
X26572Y214057D01*
X25525Y213829D01*
X24464Y213676D01*
X23396Y213600D01*
X22324Y213600D01*
X21256Y213676D01*
X20195Y213829D01*
X19148Y214057D01*
X18120Y214359D01*
X17116Y214733D01*
X16141Y215178D01*
X15201Y215692D01*
X14300Y216271D01*
X13442Y216913D01*
X12632Y217615D01*
X11875Y218372D01*
X11173Y219182D01*
X10531Y220040D01*
X9952Y220941D01*
X9438Y221881D01*
X8993Y222856D01*
X8619Y223860D01*
X8317Y224888D01*
X8089Y225935D01*
X7936Y226996D01*
X7860Y228064D01*
X7860Y229136D01*
X7936Y230204D01*
X8089Y231265D01*
X8317Y232312D01*
X8619Y233340D01*
X8993Y234344D01*
X9438Y235319D01*
X9952Y236259D01*
X10531Y237160D01*
X11173Y238018D01*
X11875Y238828D01*
X12632Y239585D01*
X13442Y240287D01*
X14300Y240929D01*
X15201Y241508D01*
X16141Y242022D01*
X17116Y242467D01*
X18120Y242841D01*
X19148Y243143D01*
X20195Y243371D01*
X21256Y243524D01*
X22324Y243600D01*
X23396Y243600D01*
X24464Y243524D01*
X25525Y243371D01*
X26572Y243143D01*
X27600Y242841D01*
X28604Y242467D01*
X29579Y242022D01*
X30519Y241508D01*
X31420Y240929D01*
X32278Y240287D01*
X33088Y239585D01*
X33845Y238828D01*
X34547Y238018D01*
X35189Y237160D01*
X35768Y236259D01*
X36282Y235319D01*
X36727Y234344D01*
X37101Y233340D01*
X37403Y232312D01*
X37631Y231265D01*
X37784Y230204D01*
X37860Y229136D01*
X37860Y228064D01*
X246140Y230604D02*
X246064Y229536D01*
X245911Y228475D01*
X245683Y227428D01*
X245381Y226400D01*
X245007Y225396D01*
X244562Y224421D01*
X244048Y223481D01*
X243469Y222580D01*
X242827Y221722D01*
X242125Y220912D01*
X241368Y220155D01*
X240558Y219453D01*
X239700Y218811D01*
X238799Y218232D01*
X237859Y217718D01*
X236884Y217273D01*
X235880Y216899D01*
X234852Y216597D01*
X233805Y216369D01*
X232744Y216216D01*
X231676Y216140D01*
X230604Y216140D01*
X229536Y216216D01*
X228475Y216369D01*
X227428Y216597D01*
X226400Y216899D01*
X225396Y217273D01*
X224421Y217718D01*
X223481Y218232D01*
X222580Y218811D01*
X221722Y219453D01*
X220912Y220155D01*
X220155Y220912D01*
X219453Y221722D01*
X218811Y222580D01*
X218232Y223481D01*
X217718Y224421D01*
X217273Y225396D01*
X216899Y226400D01*
X216597Y227428D01*
X216369Y228475D01*
X216216Y229536D01*
X216140Y230604D01*
X216140Y231676D01*
X216216Y232744D01*
X216369Y233805D01*
X216597Y234852D01*
X216899Y235880D01*
X217273Y236884D01*
X217718Y237859D01*
X218232Y238799D01*
X218811Y239700D01*
X219453Y240558D01*
X220155Y241368D01*
X220912Y242125D01*
X221722Y242827D01*
X222580Y243469D01*
X223481Y244048D01*
X224421Y244562D01*
X225396Y245007D01*
X226400Y245381D01*
X227428Y245683D01*
X228475Y245911D01*
X229536Y246064D01*
X230604Y246140D01*
X231676Y246140D01*
X232744Y246064D01*
X233805Y245911D01*
X234852Y245683D01*
X235880Y245381D01*
X236884Y245007D01*
X237859Y244562D01*
X238799Y244048D01*
X239700Y243469D01*
X240558Y242827D01*
X241368Y242125D01*
X242125Y241368D01*
X242827Y240558D01*
X243469Y239700D01*
X244048Y238799D01*
X244562Y237859D01*
X245007Y236884D01*
X245381Y235880D01*
X245683Y234852D01*
X245911Y233805D01*
X246064Y232744D01*
X246140Y231676D01*
X246140Y230604D01*
X243600Y19784D02*
X243524Y18716D01*
X243371Y17655D01*
X243143Y16608D01*
X242841Y15580D01*
X242467Y14576D01*
X242022Y13601D01*
X241508Y12661D01*
X240929Y11760D01*
X240287Y10902D01*
X239585Y10092D01*
X238828Y9335D01*
X238018Y8633D01*
X237160Y7991D01*
X236259Y7412D01*
X235319Y6898D01*
X234344Y6453D01*
X233340Y6079D01*
X232312Y5777D01*
X231265Y5549D01*
X230204Y5396D01*
X229136Y5320D01*
X228064Y5320D01*
X226996Y5396D01*
X225935Y5549D01*
X224888Y5777D01*
X223860Y6079D01*
X222856Y6453D01*
X221881Y6898D01*
X220941Y7412D01*
X220040Y7991D01*
X219182Y8633D01*
X218372Y9335D01*
X217615Y10092D01*
X216913Y10902D01*
X216271Y11760D01*
X215692Y12661D01*
X215178Y13601D01*
X214733Y14576D01*
X214359Y15580D01*
X214057Y16608D01*
X213829Y17655D01*
X213676Y18716D01*
X213600Y19784D01*
X213600Y20856D01*
X213676Y21924D01*
X213829Y22985D01*
X214057Y24032D01*
X214359Y25060D01*
X214733Y26064D01*
X215178Y27039D01*
X215692Y27979D01*
X216271Y28880D01*
X216913Y29738D01*
X217615Y30548D01*
X218372Y31305D01*
X219182Y32007D01*
X220040Y32649D01*
X220941Y33228D01*
X221881Y33742D01*
X222856Y34187D01*
X223860Y34561D01*
X224888Y34863D01*
X225935Y35091D01*
X226996Y35244D01*
X228064Y35320D01*
X229136Y35320D01*
X230204Y35244D01*
X231265Y35091D01*
X232312Y34863D01*
X233340Y34561D01*
X234344Y34187D01*
X235319Y33742D01*
X236259Y33228D01*
X237160Y32649D01*
X238018Y32007D01*
X238828Y31305D01*
X239585Y30548D01*
X240287Y29738D01*
X240929Y28880D01*
X241508Y27979D01*
X242022Y27039D01*
X242467Y26064D01*
X242841Y25060D01*
X243143Y24032D01*
X243371Y22985D01*
X243524Y21924D01*
X243600Y20856D01*
X243600Y19784D01*
X37860Y22324D02*
X37784Y21256D01*
X37631Y20195D01*
X37403Y19148D01*
X37101Y18120D01*
X36727Y17116D01*
X36282Y16141D01*
X35768Y15201D01*
X35189Y14300D01*
X34547Y13442D01*
X33845Y12632D01*
X33088Y11875D01*
X32278Y11173D01*
X31420Y10531D01*
X30519Y9952D01*
X29579Y9438D01*
X28604Y8993D01*
X27600Y8619D01*
X26572Y8317D01*
X25525Y8089D01*
X24464Y7936D01*
X23396Y7860D01*
X22324Y7860D01*
X21256Y7936D01*
X20195Y8089D01*
X19148Y8317D01*
X18120Y8619D01*
X17116Y8993D01*
X16141Y9438D01*
X15201Y9952D01*
X14300Y10531D01*
X13442Y11173D01*
X12632Y11875D01*
X11875Y12632D01*
X11173Y13442D01*
X10531Y14300D01*
X9952Y15201D01*
X9438Y16141D01*
X8993Y17116D01*
X8619Y18120D01*
X8317Y19148D01*
X8089Y20195D01*
X7936Y21256D01*
X7860Y22324D01*
X7860Y23396D01*
X7936Y24464D01*
X8089Y25525D01*
X8317Y26572D01*
X8619Y27600D01*
X8993Y28604D01*
X9438Y29579D01*
X9952Y30519D01*
X10531Y31420D01*
X11173Y32278D01*
X11875Y33088D01*
X12632Y33845D01*
X13442Y34547D01*
X14300Y35189D01*
X15201Y35768D01*
X16141Y36282D01*
X17116Y36727D01*
X18120Y37101D01*
X19148Y37403D01*
X20195Y37631D01*
X21256Y37784D01*
X22324Y37860D01*
X23396Y37860D01*
X24464Y37784D01*
X25525Y37631D01*
X26572Y37403D01*
X27600Y37101D01*
X28604Y36727D01*
X29579Y36282D01*
X30519Y35768D01*
X31420Y35189D01*
X32278Y34547D01*
X33088Y33845D01*
X33845Y33088D01*
X34547Y32278D01*
X35189Y31420D01*
X35768Y30519D01*
X36282Y29579D01*
X36727Y28604D01*
X37101Y27600D01*
X37403Y26572D01*
X37631Y25525D01*
X37784Y24464D01*
X37860Y23396D01*
X37860Y22324D01*
M02*
