G04 EAGLE Gerber X2 export*
%TF.Part,Single*%
%TF.FileFunction,Legend,Top,1*%
%TF.FilePolarity,Positive*%
%TF.GenerationSoftware,Autodesk,EAGLE,9.1.2*%
%TF.CreationDate,2020-01-29T09:53:54Z*%
G75*
%MOMM*%
%FSLAX34Y34*%
%LPD*%
%AMOC8*
5,1,8,0,0,1.08239X$1,22.5*%
G01*
%ADD10C,0.050800*%
%ADD11C,0.101600*%
%ADD12C,0.152400*%
%ADD13C,0.127000*%


D10*
X175514Y82216D02*
X177011Y77724D01*
X178509Y82216D01*
X180962Y77724D02*
X182210Y77724D01*
X180962Y77724D02*
X180909Y77726D01*
X180855Y77732D01*
X180803Y77741D01*
X180751Y77754D01*
X180700Y77771D01*
X180651Y77792D01*
X180603Y77816D01*
X180557Y77843D01*
X180513Y77873D01*
X180472Y77907D01*
X180432Y77943D01*
X180396Y77983D01*
X180362Y78024D01*
X180332Y78068D01*
X180305Y78114D01*
X180281Y78162D01*
X180260Y78211D01*
X180243Y78262D01*
X180230Y78314D01*
X180221Y78366D01*
X180215Y78420D01*
X180213Y78473D01*
X180213Y79720D01*
X180215Y79781D01*
X180221Y79843D01*
X180230Y79903D01*
X180243Y79963D01*
X180260Y80023D01*
X180280Y80081D01*
X180304Y80137D01*
X180332Y80192D01*
X180362Y80245D01*
X180396Y80297D01*
X180433Y80346D01*
X180473Y80392D01*
X180516Y80436D01*
X180562Y80478D01*
X180610Y80516D01*
X180660Y80552D01*
X180712Y80584D01*
X180766Y80613D01*
X180822Y80639D01*
X180879Y80661D01*
X180938Y80680D01*
X180997Y80695D01*
X181058Y80706D01*
X181119Y80714D01*
X181180Y80718D01*
X181242Y80718D01*
X181303Y80714D01*
X181364Y80706D01*
X181425Y80695D01*
X181484Y80680D01*
X181543Y80661D01*
X181600Y80639D01*
X181656Y80613D01*
X181710Y80584D01*
X181762Y80552D01*
X181812Y80516D01*
X181860Y80478D01*
X181906Y80436D01*
X181949Y80392D01*
X181989Y80346D01*
X182026Y80297D01*
X182060Y80245D01*
X182090Y80192D01*
X182118Y80137D01*
X182142Y80081D01*
X182162Y80023D01*
X182179Y79963D01*
X182192Y79903D01*
X182201Y79843D01*
X182207Y79781D01*
X182209Y79720D01*
X182210Y79720D02*
X182210Y79221D01*
X180213Y79221D01*
X184263Y77724D02*
X184263Y80719D01*
X185511Y80719D01*
X185564Y80717D01*
X185618Y80711D01*
X185670Y80702D01*
X185722Y80689D01*
X185773Y80672D01*
X185822Y80651D01*
X185870Y80627D01*
X185916Y80600D01*
X185960Y80570D01*
X186001Y80536D01*
X186041Y80500D01*
X186077Y80461D01*
X186111Y80419D01*
X186141Y80375D01*
X186168Y80329D01*
X186192Y80281D01*
X186213Y80232D01*
X186230Y80181D01*
X186243Y80129D01*
X186252Y80077D01*
X186258Y80023D01*
X186260Y79970D01*
X186260Y77724D01*
X188313Y78722D02*
X188313Y79720D01*
X188315Y79781D01*
X188321Y79843D01*
X188330Y79903D01*
X188343Y79963D01*
X188360Y80023D01*
X188380Y80081D01*
X188404Y80137D01*
X188432Y80192D01*
X188462Y80245D01*
X188496Y80297D01*
X188533Y80346D01*
X188573Y80392D01*
X188616Y80436D01*
X188662Y80478D01*
X188710Y80516D01*
X188760Y80552D01*
X188812Y80584D01*
X188866Y80613D01*
X188922Y80639D01*
X188979Y80661D01*
X189038Y80680D01*
X189097Y80695D01*
X189158Y80706D01*
X189219Y80714D01*
X189280Y80718D01*
X189342Y80718D01*
X189403Y80714D01*
X189464Y80706D01*
X189525Y80695D01*
X189584Y80680D01*
X189643Y80661D01*
X189700Y80639D01*
X189756Y80613D01*
X189810Y80584D01*
X189862Y80552D01*
X189912Y80516D01*
X189960Y80478D01*
X190006Y80436D01*
X190049Y80392D01*
X190089Y80346D01*
X190126Y80297D01*
X190160Y80245D01*
X190190Y80192D01*
X190218Y80137D01*
X190242Y80081D01*
X190262Y80023D01*
X190279Y79963D01*
X190292Y79903D01*
X190301Y79843D01*
X190307Y79781D01*
X190309Y79720D01*
X190310Y79720D02*
X190310Y78722D01*
X190309Y78722D02*
X190307Y78661D01*
X190301Y78599D01*
X190292Y78539D01*
X190279Y78479D01*
X190262Y78419D01*
X190242Y78361D01*
X190218Y78305D01*
X190190Y78250D01*
X190160Y78197D01*
X190126Y78145D01*
X190089Y78096D01*
X190049Y78050D01*
X190006Y78006D01*
X189960Y77964D01*
X189912Y77926D01*
X189862Y77890D01*
X189810Y77858D01*
X189756Y77829D01*
X189700Y77803D01*
X189643Y77781D01*
X189584Y77762D01*
X189525Y77747D01*
X189464Y77736D01*
X189403Y77728D01*
X189342Y77724D01*
X189280Y77724D01*
X189219Y77728D01*
X189158Y77736D01*
X189097Y77747D01*
X189038Y77762D01*
X188979Y77781D01*
X188922Y77803D01*
X188866Y77829D01*
X188812Y77858D01*
X188760Y77890D01*
X188710Y77926D01*
X188662Y77964D01*
X188616Y78006D01*
X188573Y78050D01*
X188533Y78096D01*
X188496Y78145D01*
X188462Y78197D01*
X188432Y78250D01*
X188404Y78305D01*
X188380Y78361D01*
X188360Y78419D01*
X188343Y78479D01*
X188330Y78539D01*
X188321Y78599D01*
X188315Y78661D01*
X188313Y78722D01*
X192464Y77724D02*
X192464Y80719D01*
X194710Y80719D01*
X194763Y80717D01*
X194817Y80711D01*
X194869Y80702D01*
X194921Y80689D01*
X194972Y80672D01*
X195021Y80651D01*
X195069Y80627D01*
X195115Y80600D01*
X195159Y80570D01*
X195200Y80536D01*
X195240Y80500D01*
X195276Y80460D01*
X195310Y80419D01*
X195340Y80375D01*
X195367Y80329D01*
X195391Y80281D01*
X195412Y80232D01*
X195429Y80181D01*
X195442Y80129D01*
X195451Y80077D01*
X195457Y80023D01*
X195459Y79970D01*
X195459Y77724D01*
X193961Y77724D02*
X193961Y80719D01*
X199863Y80719D02*
X200861Y77724D01*
X201860Y80719D01*
X203664Y81218D02*
X204911Y82216D01*
X204911Y77724D01*
X203664Y77724D02*
X206159Y77724D01*
X207936Y77724D02*
X207936Y77974D01*
X208186Y77974D01*
X208186Y77724D01*
X207936Y77724D01*
X209963Y79970D02*
X209965Y80090D01*
X209971Y80210D01*
X209980Y80329D01*
X209994Y80448D01*
X210011Y80567D01*
X210033Y80685D01*
X210058Y80802D01*
X210087Y80919D01*
X210119Y81034D01*
X210156Y81149D01*
X210196Y81262D01*
X210239Y81373D01*
X210287Y81484D01*
X210337Y81592D01*
X210338Y81592D02*
X210359Y81649D01*
X210384Y81703D01*
X210413Y81757D01*
X210445Y81808D01*
X210480Y81857D01*
X210518Y81903D01*
X210560Y81947D01*
X210604Y81988D01*
X210650Y82026D01*
X210699Y82061D01*
X210751Y82093D01*
X210804Y82121D01*
X210859Y82146D01*
X210915Y82167D01*
X210973Y82185D01*
X211031Y82198D01*
X211091Y82208D01*
X211151Y82214D01*
X211211Y82216D01*
X211271Y82214D01*
X211331Y82208D01*
X211391Y82198D01*
X211449Y82185D01*
X211507Y82167D01*
X211563Y82146D01*
X211618Y82121D01*
X211671Y82093D01*
X211723Y82061D01*
X211772Y82026D01*
X211818Y81988D01*
X211862Y81947D01*
X211904Y81903D01*
X211942Y81857D01*
X211977Y81808D01*
X212009Y81757D01*
X212038Y81703D01*
X212063Y81649D01*
X212084Y81592D01*
X212085Y81592D02*
X212135Y81484D01*
X212183Y81373D01*
X212226Y81262D01*
X212266Y81149D01*
X212303Y81034D01*
X212335Y80919D01*
X212364Y80802D01*
X212389Y80685D01*
X212411Y80567D01*
X212428Y80448D01*
X212442Y80329D01*
X212451Y80210D01*
X212457Y80090D01*
X212459Y79970D01*
X209963Y79970D02*
X209965Y79850D01*
X209971Y79730D01*
X209980Y79611D01*
X209994Y79492D01*
X210011Y79373D01*
X210033Y79255D01*
X210058Y79138D01*
X210087Y79021D01*
X210119Y78906D01*
X210156Y78792D01*
X210196Y78678D01*
X210239Y78567D01*
X210287Y78457D01*
X210337Y78348D01*
X210338Y78348D02*
X210359Y78291D01*
X210384Y78237D01*
X210413Y78183D01*
X210445Y78132D01*
X210480Y78083D01*
X210518Y78037D01*
X210560Y77993D01*
X210604Y77952D01*
X210650Y77914D01*
X210699Y77879D01*
X210751Y77847D01*
X210804Y77819D01*
X210859Y77794D01*
X210915Y77773D01*
X210973Y77755D01*
X211031Y77742D01*
X211091Y77732D01*
X211151Y77726D01*
X211211Y77724D01*
X212085Y78348D02*
X212135Y78457D01*
X212183Y78567D01*
X212226Y78678D01*
X212266Y78792D01*
X212303Y78906D01*
X212335Y79021D01*
X212364Y79138D01*
X212389Y79255D01*
X212411Y79373D01*
X212428Y79492D01*
X212442Y79611D01*
X212451Y79730D01*
X212457Y79850D01*
X212459Y79970D01*
X212084Y78348D02*
X212063Y78291D01*
X212038Y78236D01*
X212009Y78183D01*
X211977Y78132D01*
X211942Y78083D01*
X211904Y78037D01*
X211862Y77993D01*
X211818Y77952D01*
X211772Y77914D01*
X211723Y77879D01*
X211671Y77847D01*
X211618Y77819D01*
X211563Y77794D01*
X211507Y77773D01*
X211449Y77755D01*
X211391Y77742D01*
X211331Y77732D01*
X211271Y77726D01*
X211211Y77724D01*
X210213Y78722D02*
X212209Y81218D01*
X175514Y73326D02*
X175514Y68834D01*
X178010Y68834D02*
X175514Y73326D01*
X178010Y73326D02*
X178010Y68834D01*
X180862Y68834D02*
X182110Y68834D01*
X180862Y68834D02*
X180809Y68836D01*
X180755Y68842D01*
X180703Y68851D01*
X180651Y68864D01*
X180600Y68881D01*
X180551Y68902D01*
X180503Y68926D01*
X180457Y68953D01*
X180413Y68983D01*
X180372Y69017D01*
X180332Y69053D01*
X180296Y69093D01*
X180262Y69134D01*
X180232Y69178D01*
X180205Y69224D01*
X180181Y69272D01*
X180160Y69321D01*
X180143Y69372D01*
X180130Y69424D01*
X180121Y69476D01*
X180115Y69530D01*
X180113Y69583D01*
X180114Y69583D02*
X180114Y70830D01*
X180116Y70891D01*
X180122Y70953D01*
X180131Y71013D01*
X180144Y71073D01*
X180161Y71133D01*
X180181Y71191D01*
X180205Y71247D01*
X180233Y71302D01*
X180263Y71355D01*
X180297Y71407D01*
X180334Y71456D01*
X180374Y71502D01*
X180417Y71546D01*
X180463Y71588D01*
X180511Y71626D01*
X180561Y71662D01*
X180613Y71694D01*
X180667Y71723D01*
X180723Y71749D01*
X180780Y71771D01*
X180839Y71790D01*
X180898Y71805D01*
X180959Y71816D01*
X181020Y71824D01*
X181081Y71828D01*
X181143Y71828D01*
X181204Y71824D01*
X181265Y71816D01*
X181326Y71805D01*
X181385Y71790D01*
X181444Y71771D01*
X181501Y71749D01*
X181557Y71723D01*
X181611Y71694D01*
X181663Y71662D01*
X181713Y71626D01*
X181761Y71588D01*
X181807Y71546D01*
X181850Y71502D01*
X181890Y71456D01*
X181927Y71407D01*
X181961Y71355D01*
X181991Y71302D01*
X182019Y71247D01*
X182043Y71191D01*
X182063Y71133D01*
X182080Y71073D01*
X182093Y71013D01*
X182102Y70953D01*
X182108Y70891D01*
X182110Y70830D01*
X182110Y70331D01*
X180114Y70331D01*
X184164Y69583D02*
X184164Y71829D01*
X184163Y69583D02*
X184165Y69530D01*
X184171Y69476D01*
X184180Y69424D01*
X184193Y69372D01*
X184210Y69321D01*
X184231Y69272D01*
X184255Y69224D01*
X184282Y69178D01*
X184312Y69134D01*
X184346Y69093D01*
X184382Y69053D01*
X184422Y69017D01*
X184463Y68983D01*
X184507Y68953D01*
X184553Y68926D01*
X184601Y68902D01*
X184650Y68881D01*
X184701Y68864D01*
X184753Y68851D01*
X184805Y68842D01*
X184859Y68836D01*
X184912Y68834D01*
X186160Y68834D01*
X186160Y71829D01*
X188447Y73326D02*
X188447Y68834D01*
X188447Y73326D02*
X189695Y73326D01*
X189764Y73324D01*
X189832Y73318D01*
X189900Y73309D01*
X189968Y73296D01*
X190035Y73279D01*
X190100Y73258D01*
X190165Y73234D01*
X190228Y73207D01*
X190289Y73176D01*
X190349Y73141D01*
X190406Y73104D01*
X190462Y73063D01*
X190515Y73019D01*
X190565Y72973D01*
X190613Y72923D01*
X190658Y72871D01*
X190701Y72817D01*
X190740Y72761D01*
X190776Y72702D01*
X190809Y72642D01*
X190838Y72579D01*
X190864Y72516D01*
X190886Y72451D01*
X190905Y72384D01*
X190920Y72317D01*
X190931Y72249D01*
X190939Y72181D01*
X190943Y72112D01*
X190943Y72044D01*
X190939Y71975D01*
X190931Y71907D01*
X190920Y71839D01*
X190905Y71772D01*
X190886Y71705D01*
X190864Y71640D01*
X190838Y71577D01*
X190809Y71514D01*
X190776Y71454D01*
X190740Y71395D01*
X190701Y71339D01*
X190658Y71285D01*
X190613Y71233D01*
X190565Y71183D01*
X190515Y71137D01*
X190462Y71093D01*
X190406Y71052D01*
X190349Y71015D01*
X190289Y70980D01*
X190228Y70949D01*
X190165Y70922D01*
X190100Y70898D01*
X190035Y70877D01*
X189968Y70860D01*
X189900Y70847D01*
X189832Y70838D01*
X189764Y70832D01*
X189695Y70830D01*
X188447Y70830D01*
X189944Y70830D02*
X190942Y68834D01*
X192864Y69832D02*
X192864Y70830D01*
X192866Y70891D01*
X192872Y70953D01*
X192881Y71013D01*
X192894Y71073D01*
X192911Y71133D01*
X192931Y71191D01*
X192955Y71247D01*
X192983Y71302D01*
X193013Y71355D01*
X193047Y71407D01*
X193084Y71456D01*
X193124Y71502D01*
X193167Y71546D01*
X193213Y71588D01*
X193261Y71626D01*
X193311Y71662D01*
X193363Y71694D01*
X193417Y71723D01*
X193473Y71749D01*
X193530Y71771D01*
X193589Y71790D01*
X193648Y71805D01*
X193709Y71816D01*
X193770Y71824D01*
X193831Y71828D01*
X193893Y71828D01*
X193954Y71824D01*
X194015Y71816D01*
X194076Y71805D01*
X194135Y71790D01*
X194194Y71771D01*
X194251Y71749D01*
X194307Y71723D01*
X194361Y71694D01*
X194413Y71662D01*
X194463Y71626D01*
X194511Y71588D01*
X194557Y71546D01*
X194600Y71502D01*
X194640Y71456D01*
X194677Y71407D01*
X194711Y71355D01*
X194741Y71302D01*
X194769Y71247D01*
X194793Y71191D01*
X194813Y71133D01*
X194830Y71073D01*
X194843Y71013D01*
X194852Y70953D01*
X194858Y70891D01*
X194860Y70830D01*
X194860Y69832D01*
X194858Y69771D01*
X194852Y69709D01*
X194843Y69649D01*
X194830Y69589D01*
X194813Y69529D01*
X194793Y69471D01*
X194769Y69415D01*
X194741Y69360D01*
X194711Y69307D01*
X194677Y69255D01*
X194640Y69206D01*
X194600Y69160D01*
X194557Y69116D01*
X194511Y69074D01*
X194463Y69036D01*
X194413Y69000D01*
X194361Y68968D01*
X194307Y68939D01*
X194251Y68913D01*
X194194Y68891D01*
X194135Y68872D01*
X194076Y68857D01*
X194015Y68846D01*
X193954Y68838D01*
X193893Y68834D01*
X193831Y68834D01*
X193770Y68838D01*
X193709Y68846D01*
X193648Y68857D01*
X193589Y68872D01*
X193530Y68891D01*
X193473Y68913D01*
X193417Y68939D01*
X193363Y68968D01*
X193311Y69000D01*
X193261Y69036D01*
X193213Y69074D01*
X193167Y69116D01*
X193124Y69160D01*
X193084Y69206D01*
X193047Y69255D01*
X193013Y69307D01*
X192983Y69360D01*
X192955Y69415D01*
X192931Y69471D01*
X192911Y69529D01*
X192894Y69589D01*
X192881Y69649D01*
X192872Y69709D01*
X192866Y69771D01*
X192864Y69832D01*
X196914Y68834D02*
X196914Y71829D01*
X198161Y71829D01*
X198214Y71827D01*
X198268Y71821D01*
X198320Y71812D01*
X198372Y71799D01*
X198423Y71782D01*
X198472Y71761D01*
X198520Y71737D01*
X198566Y71710D01*
X198610Y71680D01*
X198651Y71646D01*
X198691Y71610D01*
X198727Y71571D01*
X198761Y71529D01*
X198791Y71485D01*
X198818Y71439D01*
X198842Y71391D01*
X198863Y71342D01*
X198880Y71291D01*
X198893Y71239D01*
X198902Y71187D01*
X198908Y71133D01*
X198910Y71080D01*
X198910Y68834D01*
X201362Y68834D02*
X201362Y73326D01*
X200863Y68834D02*
X201861Y68834D01*
X201861Y73326D02*
X200863Y73326D01*
X204697Y68834D02*
X205696Y68834D01*
X204697Y68834D02*
X204637Y68836D01*
X204577Y68841D01*
X204517Y68850D01*
X204458Y68863D01*
X204400Y68879D01*
X204343Y68899D01*
X204287Y68922D01*
X204233Y68948D01*
X204181Y68978D01*
X204130Y69011D01*
X204082Y69046D01*
X204035Y69085D01*
X203991Y69126D01*
X203950Y69170D01*
X203911Y69217D01*
X203876Y69265D01*
X203843Y69316D01*
X203813Y69368D01*
X203787Y69422D01*
X203764Y69478D01*
X203744Y69535D01*
X203728Y69593D01*
X203715Y69652D01*
X203706Y69712D01*
X203701Y69772D01*
X203699Y69832D01*
X203699Y72328D01*
X203701Y72391D01*
X203707Y72453D01*
X203717Y72515D01*
X203730Y72576D01*
X203748Y72636D01*
X203769Y72695D01*
X203794Y72753D01*
X203822Y72809D01*
X203854Y72863D01*
X203890Y72915D01*
X203928Y72964D01*
X203969Y73011D01*
X204014Y73055D01*
X204061Y73097D01*
X204110Y73135D01*
X204162Y73171D01*
X204216Y73203D01*
X204272Y73231D01*
X204330Y73256D01*
X204389Y73277D01*
X204449Y73295D01*
X204510Y73308D01*
X204572Y73318D01*
X204634Y73324D01*
X204697Y73326D01*
X205696Y73326D01*
X207788Y70581D02*
X209036Y70082D01*
X207788Y70581D02*
X207742Y70602D01*
X207698Y70625D01*
X207656Y70652D01*
X207617Y70683D01*
X207579Y70716D01*
X207545Y70752D01*
X207513Y70790D01*
X207485Y70831D01*
X207459Y70874D01*
X207437Y70919D01*
X207419Y70965D01*
X207404Y71012D01*
X207392Y71061D01*
X207385Y71110D01*
X207381Y71160D01*
X207382Y71210D01*
X207386Y71260D01*
X207394Y71309D01*
X207405Y71357D01*
X207421Y71405D01*
X207440Y71451D01*
X207462Y71495D01*
X207488Y71538D01*
X207517Y71579D01*
X207549Y71617D01*
X207584Y71652D01*
X207621Y71685D01*
X207661Y71715D01*
X207704Y71742D01*
X207748Y71765D01*
X207793Y71785D01*
X207840Y71801D01*
X207889Y71814D01*
X207938Y71823D01*
X207987Y71828D01*
X208037Y71829D01*
X208143Y71825D01*
X208248Y71818D01*
X208352Y71807D01*
X208457Y71791D01*
X208560Y71772D01*
X208663Y71750D01*
X208765Y71723D01*
X208866Y71693D01*
X208965Y71658D01*
X209064Y71621D01*
X209160Y71579D01*
X209035Y70082D02*
X209081Y70061D01*
X209125Y70038D01*
X209167Y70011D01*
X209206Y69980D01*
X209244Y69947D01*
X209278Y69911D01*
X209310Y69873D01*
X209338Y69832D01*
X209364Y69789D01*
X209386Y69744D01*
X209404Y69698D01*
X209419Y69651D01*
X209431Y69602D01*
X209438Y69553D01*
X209442Y69503D01*
X209441Y69453D01*
X209437Y69403D01*
X209429Y69354D01*
X209418Y69306D01*
X209402Y69258D01*
X209383Y69212D01*
X209361Y69168D01*
X209335Y69125D01*
X209306Y69084D01*
X209274Y69046D01*
X209239Y69011D01*
X209202Y68978D01*
X209162Y68948D01*
X209119Y68921D01*
X209075Y68898D01*
X209030Y68878D01*
X208983Y68862D01*
X208934Y68849D01*
X208885Y68840D01*
X208836Y68835D01*
X208786Y68834D01*
X208785Y68834D02*
X208658Y68838D01*
X208531Y68846D01*
X208404Y68857D01*
X208278Y68872D01*
X208152Y68891D01*
X208026Y68914D01*
X207902Y68941D01*
X207778Y68971D01*
X207655Y69005D01*
X207533Y69043D01*
X207413Y69084D01*
X213760Y69583D02*
X213760Y73326D01*
X213760Y69583D02*
X213762Y69530D01*
X213768Y69476D01*
X213777Y69424D01*
X213790Y69372D01*
X213807Y69321D01*
X213828Y69272D01*
X213852Y69224D01*
X213879Y69178D01*
X213909Y69134D01*
X213943Y69093D01*
X213979Y69053D01*
X214019Y69017D01*
X214060Y68983D01*
X214104Y68953D01*
X214150Y68926D01*
X214198Y68902D01*
X214247Y68881D01*
X214298Y68864D01*
X214350Y68851D01*
X214402Y68842D01*
X214456Y68836D01*
X214509Y68834D01*
X216961Y70581D02*
X218084Y70581D01*
X216961Y70580D02*
X216903Y70578D01*
X216845Y70572D01*
X216787Y70563D01*
X216730Y70549D01*
X216675Y70532D01*
X216620Y70511D01*
X216567Y70486D01*
X216516Y70458D01*
X216467Y70427D01*
X216420Y70392D01*
X216375Y70354D01*
X216333Y70314D01*
X216294Y70271D01*
X216258Y70225D01*
X216225Y70177D01*
X216195Y70127D01*
X216169Y70074D01*
X216146Y70021D01*
X216127Y69966D01*
X216112Y69909D01*
X216100Y69852D01*
X216092Y69794D01*
X216088Y69736D01*
X216088Y69678D01*
X216092Y69620D01*
X216100Y69562D01*
X216112Y69505D01*
X216127Y69448D01*
X216146Y69393D01*
X216169Y69340D01*
X216195Y69287D01*
X216225Y69237D01*
X216258Y69189D01*
X216294Y69143D01*
X216333Y69100D01*
X216375Y69060D01*
X216420Y69022D01*
X216467Y68987D01*
X216516Y68956D01*
X216567Y68928D01*
X216620Y68903D01*
X216675Y68882D01*
X216730Y68865D01*
X216787Y68851D01*
X216845Y68842D01*
X216903Y68836D01*
X216961Y68834D01*
X218084Y68834D01*
X218084Y71080D01*
X218082Y71133D01*
X218076Y71187D01*
X218067Y71239D01*
X218054Y71291D01*
X218037Y71342D01*
X218016Y71391D01*
X217992Y71439D01*
X217965Y71485D01*
X217935Y71529D01*
X217901Y71571D01*
X217865Y71610D01*
X217825Y71646D01*
X217784Y71680D01*
X217740Y71710D01*
X217694Y71737D01*
X217646Y71761D01*
X217597Y71782D01*
X217546Y71799D01*
X217494Y71812D01*
X217442Y71821D01*
X217388Y71827D01*
X217335Y71829D01*
X216337Y71829D01*
X220340Y73326D02*
X220340Y68834D01*
X221587Y68834D01*
X221640Y68836D01*
X221694Y68842D01*
X221746Y68851D01*
X221798Y68864D01*
X221849Y68881D01*
X221898Y68902D01*
X221946Y68926D01*
X221992Y68953D01*
X222036Y68983D01*
X222077Y69017D01*
X222117Y69053D01*
X222153Y69092D01*
X222187Y69134D01*
X222217Y69178D01*
X222244Y69224D01*
X222268Y69272D01*
X222289Y69321D01*
X222306Y69372D01*
X222319Y69424D01*
X222328Y69476D01*
X222334Y69530D01*
X222336Y69583D01*
X222336Y71080D01*
X222334Y71133D01*
X222328Y71187D01*
X222319Y71239D01*
X222306Y71291D01*
X222289Y71342D01*
X222268Y71391D01*
X222244Y71439D01*
X222217Y71485D01*
X222187Y71529D01*
X222153Y71571D01*
X222117Y71610D01*
X222077Y71646D01*
X222036Y71680D01*
X221992Y71710D01*
X221946Y71737D01*
X221898Y71761D01*
X221849Y71782D01*
X221798Y71799D01*
X221746Y71812D01*
X221694Y71821D01*
X221640Y71827D01*
X221587Y71829D01*
X220340Y71829D01*
X224017Y68834D02*
X224267Y68834D01*
X224017Y68834D02*
X224017Y69084D01*
X224267Y69084D01*
X224267Y68834D01*
X223893Y67836D01*
X228812Y68834D02*
X228812Y73326D01*
X228312Y68834D02*
X229311Y68834D01*
X229311Y73326D02*
X228312Y73326D01*
X231511Y73326D02*
X231511Y68834D01*
X231012Y68834D02*
X232011Y68834D01*
X232011Y73326D02*
X231012Y73326D01*
X235211Y68834D02*
X235274Y68836D01*
X235336Y68842D01*
X235398Y68852D01*
X235459Y68865D01*
X235519Y68883D01*
X235578Y68904D01*
X235636Y68929D01*
X235692Y68957D01*
X235746Y68989D01*
X235798Y69025D01*
X235847Y69063D01*
X235894Y69105D01*
X235939Y69149D01*
X235980Y69196D01*
X236018Y69245D01*
X236054Y69297D01*
X236086Y69351D01*
X236114Y69407D01*
X236139Y69465D01*
X236160Y69524D01*
X236178Y69584D01*
X236191Y69645D01*
X236201Y69707D01*
X236207Y69769D01*
X236209Y69832D01*
X235211Y68834D02*
X235123Y68836D01*
X235036Y68841D01*
X234949Y68850D01*
X234862Y68863D01*
X234776Y68879D01*
X234691Y68899D01*
X234606Y68923D01*
X234523Y68949D01*
X234440Y68980D01*
X234360Y69014D01*
X234280Y69051D01*
X234202Y69091D01*
X234126Y69134D01*
X234052Y69181D01*
X233980Y69231D01*
X233910Y69283D01*
X233842Y69339D01*
X233776Y69397D01*
X233713Y69458D01*
X233839Y72328D02*
X233841Y72388D01*
X233846Y72448D01*
X233855Y72508D01*
X233868Y72567D01*
X233884Y72625D01*
X233904Y72682D01*
X233927Y72738D01*
X233953Y72792D01*
X233983Y72844D01*
X234016Y72895D01*
X234051Y72943D01*
X234090Y72990D01*
X234131Y73034D01*
X234175Y73075D01*
X234222Y73114D01*
X234270Y73149D01*
X234321Y73182D01*
X234373Y73212D01*
X234427Y73238D01*
X234483Y73261D01*
X234540Y73281D01*
X234598Y73297D01*
X234657Y73310D01*
X234717Y73319D01*
X234777Y73324D01*
X234837Y73326D01*
X234923Y73324D01*
X235009Y73318D01*
X235094Y73308D01*
X235179Y73294D01*
X235263Y73277D01*
X235347Y73255D01*
X235429Y73230D01*
X235510Y73201D01*
X235590Y73168D01*
X235667Y73132D01*
X235744Y73092D01*
X235818Y73048D01*
X235890Y73002D01*
X235960Y72952D01*
X234337Y71454D02*
X234285Y71487D01*
X234235Y71524D01*
X234187Y71563D01*
X234141Y71605D01*
X234098Y71650D01*
X234058Y71697D01*
X234021Y71746D01*
X233987Y71798D01*
X233957Y71852D01*
X233929Y71908D01*
X233905Y71965D01*
X233885Y72023D01*
X233868Y72083D01*
X233855Y72143D01*
X233846Y72204D01*
X233840Y72266D01*
X233838Y72328D01*
X235710Y70706D02*
X235762Y70673D01*
X235812Y70636D01*
X235860Y70597D01*
X235906Y70555D01*
X235949Y70510D01*
X235989Y70463D01*
X236026Y70414D01*
X236060Y70362D01*
X236090Y70308D01*
X236118Y70252D01*
X236142Y70195D01*
X236162Y70137D01*
X236179Y70077D01*
X236192Y70017D01*
X236201Y69956D01*
X236207Y69894D01*
X236209Y69832D01*
X235710Y70706D02*
X234338Y71454D01*
X238768Y68834D02*
X239766Y68834D01*
X238768Y68834D02*
X238715Y68836D01*
X238661Y68842D01*
X238609Y68851D01*
X238557Y68864D01*
X238506Y68881D01*
X238457Y68902D01*
X238409Y68926D01*
X238363Y68953D01*
X238319Y68983D01*
X238278Y69017D01*
X238238Y69053D01*
X238202Y69093D01*
X238168Y69134D01*
X238138Y69178D01*
X238111Y69224D01*
X238087Y69272D01*
X238066Y69321D01*
X238049Y69372D01*
X238036Y69424D01*
X238027Y69476D01*
X238021Y69530D01*
X238019Y69583D01*
X238019Y71080D01*
X238021Y71133D01*
X238027Y71187D01*
X238036Y71239D01*
X238049Y71291D01*
X238066Y71342D01*
X238087Y71391D01*
X238111Y71439D01*
X238138Y71485D01*
X238168Y71529D01*
X238202Y71571D01*
X238238Y71610D01*
X238278Y71646D01*
X238319Y71680D01*
X238363Y71710D01*
X238409Y71737D01*
X238457Y71761D01*
X238506Y71782D01*
X238557Y71799D01*
X238609Y71812D01*
X238661Y71821D01*
X238715Y71827D01*
X238768Y71829D01*
X239766Y71829D01*
D11*
X47056Y43688D02*
X44459Y43688D01*
X44360Y43690D01*
X44260Y43696D01*
X44161Y43705D01*
X44063Y43718D01*
X43965Y43735D01*
X43867Y43756D01*
X43771Y43781D01*
X43676Y43809D01*
X43582Y43841D01*
X43489Y43876D01*
X43397Y43915D01*
X43307Y43958D01*
X43219Y44003D01*
X43132Y44053D01*
X43048Y44105D01*
X42965Y44161D01*
X42885Y44219D01*
X42807Y44281D01*
X42732Y44346D01*
X42659Y44414D01*
X42589Y44484D01*
X42521Y44557D01*
X42456Y44632D01*
X42394Y44710D01*
X42336Y44790D01*
X42280Y44873D01*
X42228Y44957D01*
X42178Y45044D01*
X42133Y45132D01*
X42090Y45222D01*
X42051Y45314D01*
X42016Y45407D01*
X41984Y45501D01*
X41956Y45596D01*
X41931Y45692D01*
X41910Y45790D01*
X41893Y45888D01*
X41880Y45986D01*
X41871Y46085D01*
X41865Y46185D01*
X41863Y46284D01*
X41863Y52776D01*
X41865Y52875D01*
X41871Y52975D01*
X41880Y53074D01*
X41893Y53172D01*
X41910Y53270D01*
X41931Y53368D01*
X41956Y53464D01*
X41984Y53559D01*
X42016Y53653D01*
X42051Y53746D01*
X42090Y53838D01*
X42133Y53928D01*
X42178Y54016D01*
X42228Y54103D01*
X42280Y54187D01*
X42336Y54270D01*
X42394Y54350D01*
X42456Y54428D01*
X42521Y54503D01*
X42589Y54576D01*
X42659Y54646D01*
X42732Y54714D01*
X42807Y54779D01*
X42885Y54841D01*
X42965Y54899D01*
X43048Y54955D01*
X43132Y55007D01*
X43219Y55057D01*
X43307Y55102D01*
X43397Y55145D01*
X43489Y55184D01*
X43581Y55219D01*
X43676Y55251D01*
X43771Y55279D01*
X43867Y55304D01*
X43965Y55325D01*
X44063Y55342D01*
X44161Y55355D01*
X44260Y55364D01*
X44360Y55370D01*
X44459Y55372D01*
X47056Y55372D01*
X51421Y52776D02*
X54666Y55372D01*
X54666Y43688D01*
X51421Y43688D02*
X57912Y43688D01*
D12*
X162560Y184997D02*
X175260Y184997D01*
X162560Y184997D02*
X156210Y191347D01*
X149860Y184997D01*
X137160Y184997D01*
X130810Y191347D01*
X175260Y184997D02*
X181610Y191347D01*
X130810Y191347D02*
X124460Y184997D01*
X111760Y184997D01*
X105410Y191347D01*
X99060Y184997D02*
X86360Y184997D01*
X99060Y184997D02*
X105410Y191347D01*
X86360Y184997D02*
X80010Y191347D01*
X80010Y229447D01*
X156210Y229447D02*
X162560Y235797D01*
X137160Y235797D02*
X130810Y229447D01*
X137160Y235797D02*
X149860Y235797D01*
X156210Y229447D01*
X181610Y229447D02*
X181610Y191347D01*
X181610Y229447D02*
X175260Y235797D01*
X162560Y235797D01*
X111760Y235797D02*
X105410Y229447D01*
X111760Y235797D02*
X124460Y235797D01*
X130810Y229447D01*
X105410Y229447D02*
X99060Y235797D01*
X86360Y235797D01*
X80010Y229447D01*
D13*
X167005Y249132D02*
X170180Y251672D01*
X170180Y240242D01*
X167005Y240242D02*
X173355Y240242D01*
X112649Y180552D02*
X112649Y169122D01*
X109474Y180552D02*
X115824Y180552D01*
X122645Y169122D02*
X125185Y169122D01*
X122645Y169122D02*
X122545Y169124D01*
X122446Y169130D01*
X122346Y169140D01*
X122248Y169153D01*
X122149Y169171D01*
X122052Y169192D01*
X121956Y169217D01*
X121860Y169246D01*
X121766Y169279D01*
X121673Y169315D01*
X121582Y169355D01*
X121492Y169399D01*
X121404Y169446D01*
X121318Y169496D01*
X121234Y169550D01*
X121152Y169607D01*
X121073Y169667D01*
X120995Y169731D01*
X120921Y169797D01*
X120849Y169866D01*
X120780Y169938D01*
X120714Y170012D01*
X120650Y170090D01*
X120590Y170169D01*
X120533Y170251D01*
X120479Y170335D01*
X120429Y170421D01*
X120382Y170509D01*
X120338Y170599D01*
X120298Y170690D01*
X120262Y170783D01*
X120229Y170877D01*
X120200Y170973D01*
X120175Y171069D01*
X120154Y171166D01*
X120136Y171265D01*
X120123Y171363D01*
X120113Y171463D01*
X120107Y171562D01*
X120105Y171662D01*
X120105Y178012D01*
X120107Y178112D01*
X120113Y178211D01*
X120123Y178311D01*
X120136Y178409D01*
X120154Y178508D01*
X120175Y178605D01*
X120200Y178701D01*
X120229Y178797D01*
X120262Y178891D01*
X120298Y178984D01*
X120338Y179075D01*
X120382Y179165D01*
X120429Y179253D01*
X120479Y179339D01*
X120533Y179423D01*
X120590Y179505D01*
X120650Y179584D01*
X120714Y179662D01*
X120780Y179736D01*
X120849Y179808D01*
X120921Y179877D01*
X120995Y179943D01*
X121073Y180007D01*
X121152Y180067D01*
X121234Y180124D01*
X121318Y180178D01*
X121404Y180228D01*
X121492Y180275D01*
X121582Y180319D01*
X121673Y180359D01*
X121766Y180395D01*
X121860Y180428D01*
X121956Y180457D01*
X122052Y180482D01*
X122149Y180503D01*
X122248Y180521D01*
X122346Y180534D01*
X122446Y180544D01*
X122545Y180550D01*
X122645Y180552D01*
X125185Y180552D01*
X135636Y171662D02*
X135634Y171562D01*
X135628Y171463D01*
X135618Y171363D01*
X135605Y171265D01*
X135587Y171166D01*
X135566Y171069D01*
X135541Y170973D01*
X135512Y170877D01*
X135479Y170783D01*
X135443Y170690D01*
X135403Y170599D01*
X135359Y170509D01*
X135312Y170421D01*
X135262Y170335D01*
X135208Y170251D01*
X135151Y170169D01*
X135091Y170090D01*
X135027Y170012D01*
X134961Y169938D01*
X134892Y169866D01*
X134820Y169797D01*
X134746Y169731D01*
X134668Y169667D01*
X134589Y169607D01*
X134507Y169550D01*
X134423Y169496D01*
X134337Y169446D01*
X134249Y169399D01*
X134159Y169355D01*
X134068Y169315D01*
X133975Y169279D01*
X133881Y169246D01*
X133785Y169217D01*
X133689Y169192D01*
X133592Y169171D01*
X133493Y169153D01*
X133395Y169140D01*
X133295Y169130D01*
X133196Y169124D01*
X133096Y169122D01*
X132955Y169124D01*
X132814Y169129D01*
X132673Y169139D01*
X132532Y169152D01*
X132392Y169168D01*
X132252Y169189D01*
X132113Y169213D01*
X131974Y169241D01*
X131837Y169272D01*
X131700Y169307D01*
X131564Y169345D01*
X131429Y169387D01*
X131296Y169433D01*
X131163Y169482D01*
X131032Y169535D01*
X130903Y169591D01*
X130774Y169650D01*
X130648Y169713D01*
X130523Y169779D01*
X130400Y169848D01*
X130279Y169921D01*
X130160Y169997D01*
X130042Y170076D01*
X129927Y170157D01*
X129815Y170242D01*
X129704Y170330D01*
X129596Y170421D01*
X129490Y170514D01*
X129387Y170611D01*
X129286Y170710D01*
X129604Y178012D02*
X129606Y178112D01*
X129612Y178211D01*
X129622Y178311D01*
X129635Y178409D01*
X129653Y178508D01*
X129674Y178605D01*
X129699Y178701D01*
X129728Y178797D01*
X129761Y178891D01*
X129797Y178984D01*
X129837Y179075D01*
X129881Y179165D01*
X129928Y179253D01*
X129978Y179339D01*
X130032Y179423D01*
X130089Y179505D01*
X130149Y179584D01*
X130213Y179662D01*
X130279Y179736D01*
X130348Y179808D01*
X130420Y179877D01*
X130494Y179943D01*
X130572Y180007D01*
X130651Y180067D01*
X130733Y180124D01*
X130817Y180178D01*
X130903Y180228D01*
X130991Y180275D01*
X131081Y180319D01*
X131172Y180359D01*
X131265Y180395D01*
X131359Y180428D01*
X131455Y180457D01*
X131551Y180482D01*
X131648Y180503D01*
X131747Y180521D01*
X131845Y180534D01*
X131945Y180544D01*
X132044Y180550D01*
X132144Y180552D01*
X132277Y180550D01*
X132410Y180545D01*
X132543Y180535D01*
X132676Y180522D01*
X132808Y180505D01*
X132940Y180485D01*
X133071Y180461D01*
X133201Y180433D01*
X133331Y180402D01*
X133459Y180367D01*
X133587Y180328D01*
X133713Y180286D01*
X133838Y180240D01*
X133962Y180191D01*
X134085Y180139D01*
X134206Y180083D01*
X134325Y180023D01*
X134443Y179961D01*
X134558Y179895D01*
X134672Y179826D01*
X134784Y179753D01*
X134894Y179678D01*
X135002Y179599D01*
X130873Y175789D02*
X130789Y175841D01*
X130706Y175896D01*
X130626Y175955D01*
X130548Y176016D01*
X130473Y176080D01*
X130400Y176148D01*
X130329Y176218D01*
X130262Y176290D01*
X130197Y176365D01*
X130135Y176443D01*
X130076Y176523D01*
X130020Y176605D01*
X129968Y176689D01*
X129919Y176775D01*
X129873Y176863D01*
X129830Y176953D01*
X129791Y177044D01*
X129756Y177137D01*
X129724Y177231D01*
X129696Y177326D01*
X129671Y177422D01*
X129651Y177519D01*
X129633Y177617D01*
X129620Y177715D01*
X129611Y177814D01*
X129605Y177913D01*
X129603Y178012D01*
X134366Y173885D02*
X134450Y173833D01*
X134533Y173778D01*
X134613Y173719D01*
X134691Y173658D01*
X134766Y173594D01*
X134839Y173526D01*
X134910Y173456D01*
X134977Y173384D01*
X135042Y173309D01*
X135104Y173231D01*
X135163Y173151D01*
X135219Y173069D01*
X135271Y172985D01*
X135320Y172899D01*
X135366Y172811D01*
X135409Y172721D01*
X135448Y172630D01*
X135483Y172537D01*
X135515Y172443D01*
X135543Y172348D01*
X135568Y172252D01*
X135588Y172155D01*
X135606Y172057D01*
X135619Y171959D01*
X135628Y171860D01*
X135634Y171761D01*
X135636Y171662D01*
X134366Y173884D02*
X130874Y175789D01*
X140335Y169122D02*
X143510Y169122D01*
X143621Y169124D01*
X143731Y169130D01*
X143842Y169139D01*
X143952Y169153D01*
X144061Y169170D01*
X144170Y169191D01*
X144278Y169216D01*
X144385Y169245D01*
X144491Y169277D01*
X144596Y169313D01*
X144699Y169353D01*
X144801Y169396D01*
X144902Y169443D01*
X145001Y169494D01*
X145097Y169547D01*
X145192Y169604D01*
X145285Y169665D01*
X145376Y169728D01*
X145465Y169795D01*
X145551Y169865D01*
X145634Y169938D01*
X145716Y170013D01*
X145794Y170091D01*
X145869Y170173D01*
X145942Y170256D01*
X146012Y170342D01*
X146079Y170431D01*
X146142Y170522D01*
X146203Y170615D01*
X146260Y170709D01*
X146313Y170806D01*
X146364Y170905D01*
X146411Y171006D01*
X146454Y171108D01*
X146494Y171211D01*
X146530Y171316D01*
X146562Y171422D01*
X146591Y171529D01*
X146616Y171637D01*
X146637Y171746D01*
X146654Y171855D01*
X146668Y171965D01*
X146677Y172076D01*
X146683Y172186D01*
X146685Y172297D01*
X146683Y172408D01*
X146677Y172518D01*
X146668Y172629D01*
X146654Y172739D01*
X146637Y172848D01*
X146616Y172957D01*
X146591Y173065D01*
X146562Y173172D01*
X146530Y173278D01*
X146494Y173383D01*
X146454Y173486D01*
X146411Y173588D01*
X146364Y173689D01*
X146313Y173788D01*
X146260Y173884D01*
X146203Y173979D01*
X146142Y174072D01*
X146079Y174163D01*
X146012Y174252D01*
X145942Y174338D01*
X145869Y174421D01*
X145794Y174503D01*
X145716Y174581D01*
X145634Y174656D01*
X145551Y174729D01*
X145465Y174799D01*
X145376Y174866D01*
X145285Y174929D01*
X145192Y174990D01*
X145098Y175047D01*
X145001Y175100D01*
X144902Y175151D01*
X144801Y175198D01*
X144699Y175241D01*
X144596Y175281D01*
X144491Y175317D01*
X144385Y175349D01*
X144278Y175378D01*
X144170Y175403D01*
X144061Y175424D01*
X143952Y175441D01*
X143842Y175455D01*
X143731Y175464D01*
X143621Y175470D01*
X143510Y175472D01*
X144145Y180552D02*
X140335Y180552D01*
X144145Y180552D02*
X144245Y180550D01*
X144344Y180544D01*
X144444Y180534D01*
X144542Y180521D01*
X144641Y180503D01*
X144738Y180482D01*
X144834Y180457D01*
X144930Y180428D01*
X145024Y180395D01*
X145117Y180359D01*
X145208Y180319D01*
X145298Y180275D01*
X145386Y180228D01*
X145472Y180178D01*
X145556Y180124D01*
X145638Y180067D01*
X145717Y180007D01*
X145795Y179943D01*
X145869Y179877D01*
X145941Y179808D01*
X146010Y179736D01*
X146076Y179662D01*
X146140Y179584D01*
X146200Y179505D01*
X146257Y179423D01*
X146311Y179339D01*
X146361Y179253D01*
X146408Y179165D01*
X146452Y179075D01*
X146492Y178984D01*
X146528Y178891D01*
X146561Y178797D01*
X146590Y178701D01*
X146615Y178605D01*
X146636Y178508D01*
X146654Y178409D01*
X146667Y178311D01*
X146677Y178211D01*
X146683Y178112D01*
X146685Y178012D01*
X146683Y177912D01*
X146677Y177813D01*
X146667Y177713D01*
X146654Y177615D01*
X146636Y177516D01*
X146615Y177419D01*
X146590Y177323D01*
X146561Y177227D01*
X146528Y177133D01*
X146492Y177040D01*
X146452Y176949D01*
X146408Y176859D01*
X146361Y176771D01*
X146311Y176685D01*
X146257Y176601D01*
X146200Y176519D01*
X146140Y176440D01*
X146076Y176362D01*
X146010Y176288D01*
X145941Y176216D01*
X145869Y176147D01*
X145795Y176081D01*
X145717Y176017D01*
X145638Y175957D01*
X145556Y175900D01*
X145472Y175846D01*
X145386Y175796D01*
X145298Y175749D01*
X145208Y175705D01*
X145117Y175665D01*
X145024Y175629D01*
X144930Y175596D01*
X144834Y175567D01*
X144738Y175542D01*
X144641Y175521D01*
X144542Y175503D01*
X144444Y175490D01*
X144344Y175480D01*
X144245Y175474D01*
X144145Y175472D01*
X141605Y175472D01*
X155258Y180552D02*
X155362Y180550D01*
X155467Y180544D01*
X155571Y180535D01*
X155674Y180522D01*
X155777Y180504D01*
X155879Y180484D01*
X155981Y180459D01*
X156081Y180431D01*
X156181Y180399D01*
X156279Y180363D01*
X156376Y180324D01*
X156471Y180282D01*
X156565Y180236D01*
X156657Y180186D01*
X156747Y180134D01*
X156835Y180078D01*
X156921Y180018D01*
X157005Y179956D01*
X157086Y179891D01*
X157165Y179823D01*
X157242Y179751D01*
X157315Y179678D01*
X157387Y179601D01*
X157455Y179522D01*
X157520Y179441D01*
X157582Y179357D01*
X157642Y179271D01*
X157698Y179183D01*
X157750Y179093D01*
X157800Y179001D01*
X157846Y178907D01*
X157888Y178812D01*
X157927Y178715D01*
X157963Y178617D01*
X157995Y178517D01*
X158023Y178417D01*
X158048Y178315D01*
X158068Y178213D01*
X158086Y178110D01*
X158099Y178007D01*
X158108Y177903D01*
X158114Y177798D01*
X158116Y177694D01*
X155258Y180552D02*
X155140Y180550D01*
X155021Y180544D01*
X154903Y180535D01*
X154786Y180522D01*
X154669Y180504D01*
X154552Y180484D01*
X154436Y180459D01*
X154321Y180431D01*
X154208Y180398D01*
X154095Y180363D01*
X153983Y180323D01*
X153873Y180281D01*
X153764Y180234D01*
X153656Y180184D01*
X153551Y180131D01*
X153447Y180074D01*
X153345Y180014D01*
X153245Y179951D01*
X153147Y179884D01*
X153051Y179815D01*
X152958Y179742D01*
X152867Y179666D01*
X152778Y179588D01*
X152692Y179506D01*
X152609Y179422D01*
X152528Y179336D01*
X152451Y179246D01*
X152376Y179155D01*
X152304Y179061D01*
X152235Y178964D01*
X152170Y178866D01*
X152107Y178765D01*
X152048Y178662D01*
X151992Y178558D01*
X151940Y178452D01*
X151891Y178344D01*
X151846Y178235D01*
X151804Y178124D01*
X151766Y178012D01*
X157163Y175472D02*
X157239Y175547D01*
X157314Y175626D01*
X157385Y175707D01*
X157454Y175791D01*
X157519Y175877D01*
X157581Y175965D01*
X157641Y176055D01*
X157697Y176147D01*
X157750Y176242D01*
X157799Y176338D01*
X157845Y176436D01*
X157888Y176535D01*
X157927Y176636D01*
X157962Y176738D01*
X157994Y176841D01*
X158022Y176945D01*
X158047Y177050D01*
X158068Y177157D01*
X158085Y177263D01*
X158098Y177370D01*
X158107Y177478D01*
X158113Y177586D01*
X158115Y177694D01*
X157163Y175472D02*
X151765Y169122D01*
X158115Y169122D01*
X163195Y174837D02*
X163198Y175062D01*
X163206Y175287D01*
X163219Y175511D01*
X163238Y175735D01*
X163262Y175959D01*
X163291Y176182D01*
X163326Y176404D01*
X163366Y176625D01*
X163412Y176845D01*
X163462Y177064D01*
X163518Y177282D01*
X163579Y177499D01*
X163645Y177714D01*
X163716Y177927D01*
X163793Y178138D01*
X163874Y178348D01*
X163960Y178556D01*
X164051Y178761D01*
X164147Y178964D01*
X164179Y179052D01*
X164215Y179139D01*
X164254Y179225D01*
X164297Y179309D01*
X164343Y179391D01*
X164392Y179471D01*
X164444Y179549D01*
X164500Y179625D01*
X164558Y179699D01*
X164620Y179770D01*
X164684Y179839D01*
X164751Y179905D01*
X164820Y179968D01*
X164892Y180029D01*
X164966Y180087D01*
X165043Y180141D01*
X165121Y180193D01*
X165202Y180241D01*
X165284Y180286D01*
X165369Y180328D01*
X165455Y180366D01*
X165542Y180401D01*
X165630Y180433D01*
X165720Y180460D01*
X165811Y180485D01*
X165903Y180505D01*
X165995Y180522D01*
X166089Y180535D01*
X166182Y180544D01*
X166276Y180550D01*
X166370Y180552D01*
X166464Y180550D01*
X166558Y180544D01*
X166651Y180535D01*
X166745Y180522D01*
X166837Y180505D01*
X166929Y180485D01*
X167020Y180460D01*
X167110Y180433D01*
X167198Y180401D01*
X167285Y180366D01*
X167371Y180328D01*
X167456Y180286D01*
X167538Y180241D01*
X167619Y180193D01*
X167697Y180141D01*
X167774Y180087D01*
X167848Y180029D01*
X167920Y179968D01*
X167989Y179905D01*
X168056Y179839D01*
X168120Y179770D01*
X168182Y179699D01*
X168240Y179625D01*
X168296Y179549D01*
X168348Y179471D01*
X168397Y179391D01*
X168443Y179309D01*
X168486Y179225D01*
X168525Y179139D01*
X168561Y179052D01*
X168593Y178964D01*
X168689Y178761D01*
X168780Y178556D01*
X168866Y178348D01*
X168947Y178138D01*
X169024Y177927D01*
X169095Y177714D01*
X169161Y177499D01*
X169222Y177282D01*
X169278Y177064D01*
X169328Y176845D01*
X169374Y176625D01*
X169414Y176404D01*
X169449Y176182D01*
X169478Y175959D01*
X169502Y175735D01*
X169521Y175511D01*
X169534Y175287D01*
X169542Y175062D01*
X169545Y174837D01*
X163195Y174837D02*
X163198Y174612D01*
X163206Y174387D01*
X163219Y174163D01*
X163238Y173939D01*
X163262Y173715D01*
X163291Y173492D01*
X163326Y173270D01*
X163366Y173049D01*
X163412Y172829D01*
X163462Y172610D01*
X163518Y172392D01*
X163579Y172175D01*
X163645Y171960D01*
X163716Y171747D01*
X163793Y171536D01*
X163874Y171326D01*
X163960Y171118D01*
X164051Y170913D01*
X164147Y170710D01*
X164147Y170709D02*
X164179Y170621D01*
X164215Y170534D01*
X164254Y170448D01*
X164297Y170364D01*
X164343Y170282D01*
X164392Y170202D01*
X164444Y170124D01*
X164500Y170048D01*
X164558Y169974D01*
X164620Y169903D01*
X164684Y169834D01*
X164751Y169768D01*
X164820Y169705D01*
X164892Y169644D01*
X164966Y169586D01*
X165043Y169532D01*
X165121Y169480D01*
X165202Y169432D01*
X165284Y169387D01*
X165369Y169345D01*
X165455Y169307D01*
X165542Y169272D01*
X165630Y169240D01*
X165720Y169213D01*
X165811Y169188D01*
X165903Y169168D01*
X165995Y169151D01*
X166089Y169138D01*
X166182Y169129D01*
X166276Y169123D01*
X166370Y169121D01*
X168593Y170710D02*
X168689Y170913D01*
X168780Y171118D01*
X168866Y171326D01*
X168947Y171536D01*
X169024Y171747D01*
X169095Y171960D01*
X169161Y172175D01*
X169222Y172392D01*
X169278Y172610D01*
X169328Y172829D01*
X169374Y173049D01*
X169414Y173270D01*
X169449Y173492D01*
X169478Y173715D01*
X169502Y173939D01*
X169521Y174163D01*
X169534Y174387D01*
X169542Y174612D01*
X169545Y174837D01*
X168593Y170709D02*
X168561Y170621D01*
X168525Y170534D01*
X168486Y170448D01*
X168443Y170364D01*
X168397Y170282D01*
X168348Y170202D01*
X168296Y170124D01*
X168240Y170048D01*
X168182Y169974D01*
X168120Y169903D01*
X168056Y169834D01*
X167989Y169768D01*
X167920Y169705D01*
X167848Y169644D01*
X167774Y169586D01*
X167697Y169532D01*
X167619Y169480D01*
X167538Y169432D01*
X167456Y169387D01*
X167371Y169345D01*
X167285Y169307D01*
X167198Y169272D01*
X167110Y169240D01*
X167020Y169213D01*
X166929Y169188D01*
X166837Y169168D01*
X166745Y169151D01*
X166651Y169138D01*
X166558Y169129D01*
X166464Y169123D01*
X166370Y169121D01*
X163830Y171662D02*
X168910Y178012D01*
X174625Y174837D02*
X174628Y175062D01*
X174636Y175287D01*
X174649Y175511D01*
X174668Y175735D01*
X174692Y175959D01*
X174721Y176182D01*
X174756Y176404D01*
X174796Y176625D01*
X174842Y176845D01*
X174892Y177064D01*
X174948Y177282D01*
X175009Y177499D01*
X175075Y177714D01*
X175146Y177927D01*
X175223Y178138D01*
X175304Y178348D01*
X175390Y178556D01*
X175481Y178761D01*
X175577Y178964D01*
X175609Y179052D01*
X175645Y179139D01*
X175684Y179225D01*
X175727Y179309D01*
X175773Y179391D01*
X175822Y179471D01*
X175874Y179549D01*
X175930Y179625D01*
X175988Y179699D01*
X176050Y179770D01*
X176114Y179839D01*
X176181Y179905D01*
X176250Y179968D01*
X176322Y180029D01*
X176396Y180087D01*
X176473Y180141D01*
X176551Y180193D01*
X176632Y180241D01*
X176714Y180286D01*
X176799Y180328D01*
X176885Y180366D01*
X176972Y180401D01*
X177060Y180433D01*
X177150Y180460D01*
X177241Y180485D01*
X177333Y180505D01*
X177425Y180522D01*
X177519Y180535D01*
X177612Y180544D01*
X177706Y180550D01*
X177800Y180552D01*
X177894Y180550D01*
X177988Y180544D01*
X178081Y180535D01*
X178175Y180522D01*
X178267Y180505D01*
X178359Y180485D01*
X178450Y180460D01*
X178540Y180433D01*
X178628Y180401D01*
X178715Y180366D01*
X178801Y180328D01*
X178886Y180286D01*
X178968Y180241D01*
X179049Y180193D01*
X179127Y180141D01*
X179204Y180087D01*
X179278Y180029D01*
X179350Y179968D01*
X179419Y179905D01*
X179486Y179839D01*
X179550Y179770D01*
X179612Y179699D01*
X179670Y179625D01*
X179726Y179549D01*
X179778Y179471D01*
X179827Y179391D01*
X179873Y179309D01*
X179916Y179225D01*
X179955Y179139D01*
X179991Y179052D01*
X180023Y178964D01*
X180119Y178761D01*
X180210Y178556D01*
X180296Y178348D01*
X180377Y178138D01*
X180454Y177927D01*
X180525Y177714D01*
X180591Y177499D01*
X180652Y177282D01*
X180708Y177064D01*
X180758Y176845D01*
X180804Y176625D01*
X180844Y176404D01*
X180879Y176182D01*
X180908Y175959D01*
X180932Y175735D01*
X180951Y175511D01*
X180964Y175287D01*
X180972Y175062D01*
X180975Y174837D01*
X174625Y174837D02*
X174628Y174612D01*
X174636Y174387D01*
X174649Y174163D01*
X174668Y173939D01*
X174692Y173715D01*
X174721Y173492D01*
X174756Y173270D01*
X174796Y173049D01*
X174842Y172829D01*
X174892Y172610D01*
X174948Y172392D01*
X175009Y172175D01*
X175075Y171960D01*
X175146Y171747D01*
X175223Y171536D01*
X175304Y171326D01*
X175390Y171118D01*
X175481Y170913D01*
X175577Y170710D01*
X175577Y170709D02*
X175609Y170621D01*
X175645Y170534D01*
X175684Y170448D01*
X175727Y170364D01*
X175773Y170282D01*
X175822Y170202D01*
X175874Y170124D01*
X175930Y170048D01*
X175988Y169974D01*
X176050Y169903D01*
X176114Y169834D01*
X176181Y169768D01*
X176250Y169705D01*
X176322Y169644D01*
X176396Y169586D01*
X176473Y169532D01*
X176551Y169480D01*
X176632Y169432D01*
X176714Y169387D01*
X176799Y169345D01*
X176885Y169307D01*
X176972Y169272D01*
X177060Y169240D01*
X177150Y169213D01*
X177241Y169188D01*
X177333Y169168D01*
X177425Y169151D01*
X177519Y169138D01*
X177612Y169129D01*
X177706Y169123D01*
X177800Y169121D01*
X180023Y170710D02*
X180119Y170913D01*
X180210Y171118D01*
X180296Y171326D01*
X180377Y171536D01*
X180454Y171747D01*
X180525Y171960D01*
X180591Y172175D01*
X180652Y172392D01*
X180708Y172610D01*
X180758Y172829D01*
X180804Y173049D01*
X180844Y173270D01*
X180879Y173492D01*
X180908Y173715D01*
X180932Y173939D01*
X180951Y174163D01*
X180964Y174387D01*
X180972Y174612D01*
X180975Y174837D01*
X180023Y170709D02*
X179991Y170621D01*
X179955Y170534D01*
X179916Y170448D01*
X179873Y170364D01*
X179827Y170282D01*
X179778Y170202D01*
X179726Y170124D01*
X179670Y170048D01*
X179612Y169974D01*
X179550Y169903D01*
X179486Y169834D01*
X179419Y169768D01*
X179350Y169705D01*
X179278Y169644D01*
X179204Y169586D01*
X179127Y169532D01*
X179049Y169480D01*
X178968Y169432D01*
X178886Y169387D01*
X178801Y169345D01*
X178715Y169307D01*
X178628Y169272D01*
X178540Y169240D01*
X178450Y169213D01*
X178359Y169188D01*
X178267Y169168D01*
X178175Y169151D01*
X178081Y169138D01*
X177988Y169129D01*
X177894Y169123D01*
X177800Y169121D01*
X175260Y171662D02*
X180340Y178012D01*
X92075Y172297D02*
X92073Y172408D01*
X92067Y172518D01*
X92058Y172629D01*
X92044Y172739D01*
X92027Y172848D01*
X92006Y172957D01*
X91981Y173065D01*
X91952Y173172D01*
X91920Y173278D01*
X91884Y173383D01*
X91844Y173486D01*
X91801Y173588D01*
X91754Y173689D01*
X91703Y173788D01*
X91650Y173885D01*
X91593Y173979D01*
X91532Y174072D01*
X91469Y174163D01*
X91402Y174252D01*
X91332Y174338D01*
X91259Y174421D01*
X91184Y174503D01*
X91106Y174581D01*
X91024Y174656D01*
X90941Y174729D01*
X90855Y174799D01*
X90766Y174866D01*
X90675Y174929D01*
X90582Y174990D01*
X90488Y175047D01*
X90391Y175100D01*
X90292Y175151D01*
X90191Y175198D01*
X90089Y175241D01*
X89986Y175281D01*
X89881Y175317D01*
X89775Y175349D01*
X89668Y175378D01*
X89560Y175403D01*
X89451Y175424D01*
X89342Y175441D01*
X89232Y175455D01*
X89121Y175464D01*
X89011Y175470D01*
X88900Y175472D01*
X88789Y175470D01*
X88679Y175464D01*
X88568Y175455D01*
X88458Y175441D01*
X88349Y175424D01*
X88240Y175403D01*
X88132Y175378D01*
X88025Y175349D01*
X87919Y175317D01*
X87814Y175281D01*
X87711Y175241D01*
X87609Y175198D01*
X87508Y175151D01*
X87409Y175100D01*
X87313Y175047D01*
X87218Y174990D01*
X87125Y174929D01*
X87034Y174866D01*
X86945Y174799D01*
X86859Y174729D01*
X86776Y174656D01*
X86694Y174581D01*
X86616Y174503D01*
X86541Y174421D01*
X86468Y174338D01*
X86398Y174252D01*
X86331Y174163D01*
X86268Y174072D01*
X86207Y173979D01*
X86150Y173885D01*
X86097Y173788D01*
X86046Y173689D01*
X85999Y173588D01*
X85956Y173486D01*
X85916Y173383D01*
X85880Y173278D01*
X85848Y173172D01*
X85819Y173065D01*
X85794Y172957D01*
X85773Y172848D01*
X85756Y172739D01*
X85742Y172629D01*
X85733Y172518D01*
X85727Y172408D01*
X85725Y172297D01*
X85727Y172186D01*
X85733Y172076D01*
X85742Y171965D01*
X85756Y171855D01*
X85773Y171746D01*
X85794Y171637D01*
X85819Y171529D01*
X85848Y171422D01*
X85880Y171316D01*
X85916Y171211D01*
X85956Y171108D01*
X85999Y171006D01*
X86046Y170905D01*
X86097Y170806D01*
X86150Y170710D01*
X86207Y170615D01*
X86268Y170522D01*
X86331Y170431D01*
X86398Y170342D01*
X86468Y170256D01*
X86541Y170173D01*
X86616Y170091D01*
X86694Y170013D01*
X86776Y169938D01*
X86859Y169865D01*
X86945Y169795D01*
X87034Y169728D01*
X87125Y169665D01*
X87218Y169604D01*
X87313Y169547D01*
X87409Y169494D01*
X87508Y169443D01*
X87609Y169396D01*
X87711Y169353D01*
X87814Y169313D01*
X87919Y169277D01*
X88025Y169245D01*
X88132Y169216D01*
X88240Y169191D01*
X88349Y169170D01*
X88458Y169153D01*
X88568Y169139D01*
X88679Y169130D01*
X88789Y169124D01*
X88900Y169122D01*
X89011Y169124D01*
X89121Y169130D01*
X89232Y169139D01*
X89342Y169153D01*
X89451Y169170D01*
X89560Y169191D01*
X89668Y169216D01*
X89775Y169245D01*
X89881Y169277D01*
X89986Y169313D01*
X90089Y169353D01*
X90191Y169396D01*
X90292Y169443D01*
X90391Y169494D01*
X90487Y169547D01*
X90582Y169604D01*
X90675Y169665D01*
X90766Y169728D01*
X90855Y169795D01*
X90941Y169865D01*
X91024Y169938D01*
X91106Y170013D01*
X91184Y170091D01*
X91259Y170173D01*
X91332Y170256D01*
X91402Y170342D01*
X91469Y170431D01*
X91532Y170522D01*
X91593Y170615D01*
X91650Y170709D01*
X91703Y170806D01*
X91754Y170905D01*
X91801Y171006D01*
X91844Y171108D01*
X91884Y171211D01*
X91920Y171316D01*
X91952Y171422D01*
X91981Y171529D01*
X92006Y171637D01*
X92027Y171746D01*
X92044Y171855D01*
X92058Y171965D01*
X92067Y172076D01*
X92073Y172186D01*
X92075Y172297D01*
X91440Y178012D02*
X91438Y178112D01*
X91432Y178211D01*
X91422Y178311D01*
X91409Y178409D01*
X91391Y178508D01*
X91370Y178605D01*
X91345Y178701D01*
X91316Y178797D01*
X91283Y178891D01*
X91247Y178984D01*
X91207Y179075D01*
X91163Y179165D01*
X91116Y179253D01*
X91066Y179339D01*
X91012Y179423D01*
X90955Y179505D01*
X90895Y179584D01*
X90831Y179662D01*
X90765Y179736D01*
X90696Y179808D01*
X90624Y179877D01*
X90550Y179943D01*
X90472Y180007D01*
X90393Y180067D01*
X90311Y180124D01*
X90227Y180178D01*
X90141Y180228D01*
X90053Y180275D01*
X89963Y180319D01*
X89872Y180359D01*
X89779Y180395D01*
X89685Y180428D01*
X89589Y180457D01*
X89493Y180482D01*
X89396Y180503D01*
X89297Y180521D01*
X89199Y180534D01*
X89099Y180544D01*
X89000Y180550D01*
X88900Y180552D01*
X88800Y180550D01*
X88701Y180544D01*
X88601Y180534D01*
X88503Y180521D01*
X88404Y180503D01*
X88307Y180482D01*
X88211Y180457D01*
X88115Y180428D01*
X88021Y180395D01*
X87928Y180359D01*
X87837Y180319D01*
X87747Y180275D01*
X87659Y180228D01*
X87573Y180178D01*
X87489Y180124D01*
X87407Y180067D01*
X87328Y180007D01*
X87250Y179943D01*
X87176Y179877D01*
X87104Y179808D01*
X87035Y179736D01*
X86969Y179662D01*
X86905Y179584D01*
X86845Y179505D01*
X86788Y179423D01*
X86734Y179339D01*
X86684Y179253D01*
X86637Y179165D01*
X86593Y179075D01*
X86553Y178984D01*
X86517Y178891D01*
X86484Y178797D01*
X86455Y178701D01*
X86430Y178605D01*
X86409Y178508D01*
X86391Y178409D01*
X86378Y178311D01*
X86368Y178211D01*
X86362Y178112D01*
X86360Y178012D01*
X86362Y177912D01*
X86368Y177813D01*
X86378Y177713D01*
X86391Y177615D01*
X86409Y177516D01*
X86430Y177419D01*
X86455Y177323D01*
X86484Y177227D01*
X86517Y177133D01*
X86553Y177040D01*
X86593Y176949D01*
X86637Y176859D01*
X86684Y176771D01*
X86734Y176685D01*
X86788Y176601D01*
X86845Y176519D01*
X86905Y176440D01*
X86969Y176362D01*
X87035Y176288D01*
X87104Y176216D01*
X87176Y176147D01*
X87250Y176081D01*
X87328Y176017D01*
X87407Y175957D01*
X87489Y175900D01*
X87573Y175846D01*
X87659Y175796D01*
X87747Y175749D01*
X87837Y175705D01*
X87928Y175665D01*
X88021Y175629D01*
X88115Y175596D01*
X88211Y175567D01*
X88307Y175542D01*
X88404Y175521D01*
X88503Y175503D01*
X88601Y175490D01*
X88701Y175480D01*
X88800Y175474D01*
X88900Y175472D01*
X89000Y175474D01*
X89099Y175480D01*
X89199Y175490D01*
X89297Y175503D01*
X89396Y175521D01*
X89493Y175542D01*
X89589Y175567D01*
X89685Y175596D01*
X89779Y175629D01*
X89872Y175665D01*
X89963Y175705D01*
X90053Y175749D01*
X90141Y175796D01*
X90227Y175846D01*
X90311Y175900D01*
X90393Y175957D01*
X90472Y176017D01*
X90550Y176081D01*
X90624Y176147D01*
X90696Y176216D01*
X90765Y176288D01*
X90831Y176362D01*
X90895Y176440D01*
X90955Y176519D01*
X91012Y176601D01*
X91066Y176685D01*
X91116Y176771D01*
X91163Y176859D01*
X91207Y176949D01*
X91247Y177040D01*
X91283Y177133D01*
X91316Y177227D01*
X91345Y177323D01*
X91370Y177419D01*
X91391Y177516D01*
X91409Y177615D01*
X91422Y177713D01*
X91432Y177813D01*
X91438Y177912D01*
X91440Y178012D01*
D11*
X80705Y55372D02*
X80705Y43688D01*
X80705Y55372D02*
X83950Y55372D01*
X84063Y55370D01*
X84176Y55364D01*
X84289Y55354D01*
X84402Y55340D01*
X84514Y55323D01*
X84625Y55301D01*
X84735Y55276D01*
X84845Y55246D01*
X84953Y55213D01*
X85060Y55176D01*
X85166Y55136D01*
X85270Y55091D01*
X85373Y55043D01*
X85474Y54992D01*
X85573Y54937D01*
X85670Y54879D01*
X85765Y54817D01*
X85858Y54752D01*
X85948Y54684D01*
X86036Y54613D01*
X86122Y54538D01*
X86205Y54461D01*
X86285Y54381D01*
X86362Y54298D01*
X86437Y54212D01*
X86508Y54124D01*
X86576Y54034D01*
X86641Y53941D01*
X86703Y53846D01*
X86761Y53749D01*
X86816Y53650D01*
X86867Y53549D01*
X86915Y53446D01*
X86960Y53342D01*
X87000Y53236D01*
X87037Y53129D01*
X87070Y53021D01*
X87100Y52911D01*
X87125Y52801D01*
X87147Y52690D01*
X87164Y52578D01*
X87178Y52465D01*
X87188Y52352D01*
X87194Y52239D01*
X87196Y52126D01*
X87194Y52013D01*
X87188Y51900D01*
X87178Y51787D01*
X87164Y51674D01*
X87147Y51562D01*
X87125Y51451D01*
X87100Y51341D01*
X87070Y51231D01*
X87037Y51123D01*
X87000Y51016D01*
X86960Y50910D01*
X86915Y50806D01*
X86867Y50703D01*
X86816Y50602D01*
X86761Y50503D01*
X86703Y50406D01*
X86641Y50311D01*
X86576Y50218D01*
X86508Y50128D01*
X86437Y50040D01*
X86362Y49954D01*
X86285Y49871D01*
X86205Y49791D01*
X86122Y49714D01*
X86036Y49639D01*
X85948Y49568D01*
X85858Y49500D01*
X85765Y49435D01*
X85670Y49373D01*
X85573Y49315D01*
X85474Y49260D01*
X85373Y49209D01*
X85270Y49161D01*
X85166Y49116D01*
X85060Y49076D01*
X84953Y49039D01*
X84845Y49006D01*
X84735Y48976D01*
X84625Y48951D01*
X84514Y48929D01*
X84402Y48912D01*
X84289Y48898D01*
X84176Y48888D01*
X84063Y48882D01*
X83950Y48880D01*
X83950Y48881D02*
X80705Y48881D01*
X84599Y48881D02*
X87196Y43688D01*
X92061Y52776D02*
X95306Y55372D01*
X95306Y43688D01*
X92061Y43688D02*
X98552Y43688D01*
M02*
