G04 EAGLE Gerber X2 export*
%TF.Part,Single*%
%TF.FileFunction,Legend,Top,1*%
%TF.FilePolarity,Positive*%
%TF.GenerationSoftware,Autodesk,EAGLE,9.1.2*%
%TF.CreationDate,2020-01-29T09:54:46Z*%
G75*
%MOMM*%
%FSLAX34Y34*%
%LPD*%
%AMOC8*
5,1,8,0,0,1.08239X$1,22.5*%
G01*
%ADD10C,0.050800*%
%ADD11C,0.150000*%
%ADD12C,0.076200*%
%ADD13C,0.127000*%
%ADD14C,0.152400*%


D10*
X97754Y231474D02*
X97754Y235966D01*
X100250Y231474D01*
X100250Y235966D01*
X103102Y231474D02*
X104350Y231474D01*
X103102Y231474D02*
X103049Y231476D01*
X102995Y231482D01*
X102943Y231491D01*
X102891Y231504D01*
X102840Y231521D01*
X102791Y231542D01*
X102743Y231566D01*
X102697Y231593D01*
X102653Y231623D01*
X102612Y231657D01*
X102572Y231693D01*
X102536Y231733D01*
X102502Y231774D01*
X102472Y231818D01*
X102445Y231864D01*
X102421Y231912D01*
X102400Y231961D01*
X102383Y232012D01*
X102370Y232064D01*
X102361Y232116D01*
X102355Y232170D01*
X102353Y232223D01*
X102354Y232223D02*
X102354Y233470D01*
X102356Y233531D01*
X102362Y233593D01*
X102371Y233653D01*
X102384Y233713D01*
X102401Y233773D01*
X102421Y233831D01*
X102445Y233887D01*
X102473Y233942D01*
X102503Y233995D01*
X102537Y234047D01*
X102574Y234096D01*
X102614Y234142D01*
X102657Y234186D01*
X102703Y234228D01*
X102751Y234266D01*
X102801Y234302D01*
X102853Y234334D01*
X102907Y234363D01*
X102963Y234389D01*
X103020Y234411D01*
X103079Y234430D01*
X103138Y234445D01*
X103199Y234456D01*
X103260Y234464D01*
X103321Y234468D01*
X103383Y234468D01*
X103444Y234464D01*
X103505Y234456D01*
X103566Y234445D01*
X103625Y234430D01*
X103684Y234411D01*
X103741Y234389D01*
X103797Y234363D01*
X103851Y234334D01*
X103903Y234302D01*
X103953Y234266D01*
X104001Y234228D01*
X104047Y234186D01*
X104090Y234142D01*
X104130Y234096D01*
X104167Y234047D01*
X104201Y233995D01*
X104231Y233942D01*
X104259Y233887D01*
X104283Y233831D01*
X104303Y233773D01*
X104320Y233713D01*
X104333Y233653D01*
X104342Y233593D01*
X104348Y233531D01*
X104350Y233470D01*
X104350Y232971D01*
X102354Y232971D01*
X106404Y232223D02*
X106404Y234469D01*
X106403Y232223D02*
X106405Y232170D01*
X106411Y232116D01*
X106420Y232064D01*
X106433Y232012D01*
X106450Y231961D01*
X106471Y231912D01*
X106495Y231864D01*
X106522Y231818D01*
X106552Y231774D01*
X106586Y231733D01*
X106622Y231693D01*
X106662Y231657D01*
X106703Y231623D01*
X106747Y231593D01*
X106793Y231566D01*
X106841Y231542D01*
X106890Y231521D01*
X106941Y231504D01*
X106993Y231491D01*
X107045Y231482D01*
X107099Y231476D01*
X107152Y231474D01*
X108400Y231474D01*
X108400Y234469D01*
X110687Y235966D02*
X110687Y231474D01*
X110687Y235966D02*
X111935Y235966D01*
X112004Y235964D01*
X112072Y235958D01*
X112140Y235949D01*
X112208Y235936D01*
X112275Y235919D01*
X112340Y235898D01*
X112405Y235874D01*
X112468Y235847D01*
X112529Y235816D01*
X112589Y235781D01*
X112646Y235744D01*
X112702Y235703D01*
X112755Y235659D01*
X112805Y235613D01*
X112853Y235563D01*
X112898Y235511D01*
X112941Y235457D01*
X112980Y235401D01*
X113016Y235342D01*
X113049Y235282D01*
X113078Y235219D01*
X113104Y235156D01*
X113126Y235091D01*
X113145Y235024D01*
X113160Y234957D01*
X113171Y234889D01*
X113179Y234821D01*
X113183Y234752D01*
X113183Y234684D01*
X113179Y234615D01*
X113171Y234547D01*
X113160Y234479D01*
X113145Y234412D01*
X113126Y234345D01*
X113104Y234280D01*
X113078Y234217D01*
X113049Y234154D01*
X113016Y234094D01*
X112980Y234035D01*
X112941Y233979D01*
X112898Y233925D01*
X112853Y233873D01*
X112805Y233823D01*
X112755Y233777D01*
X112702Y233733D01*
X112646Y233692D01*
X112589Y233655D01*
X112529Y233620D01*
X112468Y233589D01*
X112405Y233562D01*
X112340Y233538D01*
X112275Y233517D01*
X112208Y233500D01*
X112140Y233487D01*
X112072Y233478D01*
X112004Y233472D01*
X111935Y233470D01*
X110687Y233470D01*
X112184Y233470D02*
X113182Y231474D01*
X115104Y232472D02*
X115104Y233470D01*
X115106Y233531D01*
X115112Y233593D01*
X115121Y233653D01*
X115134Y233713D01*
X115151Y233773D01*
X115171Y233831D01*
X115195Y233887D01*
X115223Y233942D01*
X115253Y233995D01*
X115287Y234047D01*
X115324Y234096D01*
X115364Y234142D01*
X115407Y234186D01*
X115453Y234228D01*
X115501Y234266D01*
X115551Y234302D01*
X115603Y234334D01*
X115657Y234363D01*
X115713Y234389D01*
X115770Y234411D01*
X115829Y234430D01*
X115888Y234445D01*
X115949Y234456D01*
X116010Y234464D01*
X116071Y234468D01*
X116133Y234468D01*
X116194Y234464D01*
X116255Y234456D01*
X116316Y234445D01*
X116375Y234430D01*
X116434Y234411D01*
X116491Y234389D01*
X116547Y234363D01*
X116601Y234334D01*
X116653Y234302D01*
X116703Y234266D01*
X116751Y234228D01*
X116797Y234186D01*
X116840Y234142D01*
X116880Y234096D01*
X116917Y234047D01*
X116951Y233995D01*
X116981Y233942D01*
X117009Y233887D01*
X117033Y233831D01*
X117053Y233773D01*
X117070Y233713D01*
X117083Y233653D01*
X117092Y233593D01*
X117098Y233531D01*
X117100Y233470D01*
X117100Y232472D01*
X117098Y232411D01*
X117092Y232349D01*
X117083Y232289D01*
X117070Y232229D01*
X117053Y232169D01*
X117033Y232111D01*
X117009Y232055D01*
X116981Y232000D01*
X116951Y231947D01*
X116917Y231895D01*
X116880Y231846D01*
X116840Y231800D01*
X116797Y231756D01*
X116751Y231714D01*
X116703Y231676D01*
X116653Y231640D01*
X116601Y231608D01*
X116547Y231579D01*
X116491Y231553D01*
X116434Y231531D01*
X116375Y231512D01*
X116316Y231497D01*
X116255Y231486D01*
X116194Y231478D01*
X116133Y231474D01*
X116071Y231474D01*
X116010Y231478D01*
X115949Y231486D01*
X115888Y231497D01*
X115829Y231512D01*
X115770Y231531D01*
X115713Y231553D01*
X115657Y231579D01*
X115603Y231608D01*
X115551Y231640D01*
X115501Y231676D01*
X115453Y231714D01*
X115407Y231756D01*
X115364Y231800D01*
X115324Y231846D01*
X115287Y231895D01*
X115253Y231947D01*
X115223Y232000D01*
X115195Y232055D01*
X115171Y232111D01*
X115151Y232169D01*
X115134Y232229D01*
X115121Y232289D01*
X115112Y232349D01*
X115106Y232411D01*
X115104Y232472D01*
X119154Y231474D02*
X119154Y234469D01*
X120401Y234469D01*
X120454Y234467D01*
X120508Y234461D01*
X120560Y234452D01*
X120612Y234439D01*
X120663Y234422D01*
X120712Y234401D01*
X120760Y234377D01*
X120806Y234350D01*
X120850Y234320D01*
X120891Y234286D01*
X120931Y234250D01*
X120967Y234211D01*
X121001Y234169D01*
X121031Y234125D01*
X121058Y234079D01*
X121082Y234031D01*
X121103Y233982D01*
X121120Y233931D01*
X121133Y233879D01*
X121142Y233827D01*
X121148Y233773D01*
X121150Y233720D01*
X121150Y231474D01*
X123602Y231474D02*
X123602Y235966D01*
X123103Y231474D02*
X124101Y231474D01*
X124101Y235966D02*
X123103Y235966D01*
X126937Y231474D02*
X127936Y231474D01*
X126937Y231474D02*
X126877Y231476D01*
X126817Y231481D01*
X126757Y231490D01*
X126698Y231503D01*
X126640Y231519D01*
X126583Y231539D01*
X126527Y231562D01*
X126473Y231588D01*
X126421Y231618D01*
X126370Y231651D01*
X126322Y231686D01*
X126275Y231725D01*
X126231Y231766D01*
X126190Y231810D01*
X126151Y231857D01*
X126116Y231905D01*
X126083Y231956D01*
X126053Y232008D01*
X126027Y232062D01*
X126004Y232118D01*
X125984Y232175D01*
X125968Y232233D01*
X125955Y232292D01*
X125946Y232352D01*
X125941Y232412D01*
X125939Y232472D01*
X125939Y234968D01*
X125941Y235031D01*
X125947Y235093D01*
X125957Y235155D01*
X125970Y235216D01*
X125988Y235276D01*
X126009Y235335D01*
X126034Y235393D01*
X126062Y235449D01*
X126094Y235503D01*
X126130Y235555D01*
X126168Y235604D01*
X126209Y235651D01*
X126254Y235695D01*
X126301Y235737D01*
X126350Y235775D01*
X126402Y235811D01*
X126456Y235843D01*
X126512Y235871D01*
X126570Y235896D01*
X126629Y235917D01*
X126689Y235935D01*
X126750Y235948D01*
X126812Y235958D01*
X126874Y235964D01*
X126937Y235966D01*
X127936Y235966D01*
X132049Y232472D02*
X132047Y232409D01*
X132041Y232347D01*
X132031Y232285D01*
X132018Y232224D01*
X132000Y232164D01*
X131979Y232105D01*
X131954Y232047D01*
X131926Y231991D01*
X131894Y231937D01*
X131858Y231885D01*
X131820Y231836D01*
X131779Y231789D01*
X131734Y231745D01*
X131687Y231703D01*
X131638Y231665D01*
X131586Y231629D01*
X131532Y231597D01*
X131476Y231569D01*
X131418Y231544D01*
X131359Y231523D01*
X131299Y231505D01*
X131238Y231492D01*
X131176Y231482D01*
X131114Y231476D01*
X131051Y231474D01*
X130963Y231476D01*
X130876Y231481D01*
X130789Y231490D01*
X130702Y231503D01*
X130616Y231519D01*
X130531Y231539D01*
X130446Y231563D01*
X130363Y231589D01*
X130280Y231620D01*
X130200Y231654D01*
X130120Y231691D01*
X130042Y231731D01*
X129966Y231774D01*
X129892Y231821D01*
X129820Y231871D01*
X129750Y231923D01*
X129682Y231979D01*
X129616Y232037D01*
X129553Y232098D01*
X129679Y234968D02*
X129681Y235028D01*
X129686Y235088D01*
X129695Y235148D01*
X129708Y235207D01*
X129724Y235265D01*
X129744Y235322D01*
X129767Y235378D01*
X129793Y235432D01*
X129823Y235484D01*
X129856Y235535D01*
X129891Y235583D01*
X129930Y235630D01*
X129971Y235674D01*
X130015Y235715D01*
X130062Y235754D01*
X130110Y235789D01*
X130161Y235822D01*
X130213Y235852D01*
X130267Y235878D01*
X130323Y235901D01*
X130380Y235921D01*
X130438Y235937D01*
X130497Y235950D01*
X130557Y235959D01*
X130617Y235964D01*
X130677Y235966D01*
X130763Y235964D01*
X130849Y235958D01*
X130934Y235948D01*
X131019Y235934D01*
X131103Y235917D01*
X131187Y235895D01*
X131269Y235870D01*
X131350Y235841D01*
X131430Y235808D01*
X131507Y235772D01*
X131584Y235732D01*
X131658Y235688D01*
X131730Y235642D01*
X131800Y235592D01*
X130177Y234094D02*
X130125Y234127D01*
X130075Y234164D01*
X130027Y234203D01*
X129981Y234245D01*
X129938Y234290D01*
X129898Y234337D01*
X129861Y234386D01*
X129827Y234438D01*
X129797Y234492D01*
X129769Y234548D01*
X129745Y234605D01*
X129725Y234663D01*
X129708Y234723D01*
X129695Y234783D01*
X129686Y234844D01*
X129680Y234906D01*
X129678Y234968D01*
X131551Y233346D02*
X131603Y233313D01*
X131653Y233276D01*
X131701Y233237D01*
X131747Y233195D01*
X131790Y233150D01*
X131830Y233103D01*
X131867Y233054D01*
X131901Y233002D01*
X131931Y232948D01*
X131959Y232892D01*
X131983Y232835D01*
X132003Y232777D01*
X132020Y232717D01*
X132033Y232657D01*
X132042Y232596D01*
X132048Y232534D01*
X132050Y232472D01*
X131550Y233346D02*
X130178Y234094D01*
X136300Y235966D02*
X136300Y232223D01*
X136302Y232170D01*
X136308Y232116D01*
X136317Y232064D01*
X136330Y232012D01*
X136347Y231961D01*
X136368Y231912D01*
X136392Y231864D01*
X136419Y231818D01*
X136449Y231774D01*
X136483Y231733D01*
X136519Y231693D01*
X136559Y231657D01*
X136600Y231623D01*
X136644Y231593D01*
X136690Y231566D01*
X136738Y231542D01*
X136787Y231521D01*
X136838Y231504D01*
X136890Y231491D01*
X136942Y231482D01*
X136996Y231476D01*
X137049Y231474D01*
X139500Y233221D02*
X140623Y233221D01*
X139500Y233220D02*
X139442Y233218D01*
X139384Y233212D01*
X139326Y233203D01*
X139269Y233189D01*
X139214Y233172D01*
X139159Y233151D01*
X139106Y233126D01*
X139055Y233098D01*
X139006Y233067D01*
X138959Y233032D01*
X138914Y232994D01*
X138872Y232954D01*
X138833Y232911D01*
X138797Y232865D01*
X138764Y232817D01*
X138734Y232767D01*
X138708Y232714D01*
X138685Y232661D01*
X138666Y232606D01*
X138651Y232549D01*
X138639Y232492D01*
X138631Y232434D01*
X138627Y232376D01*
X138627Y232318D01*
X138631Y232260D01*
X138639Y232202D01*
X138651Y232145D01*
X138666Y232088D01*
X138685Y232033D01*
X138708Y231980D01*
X138734Y231927D01*
X138764Y231877D01*
X138797Y231829D01*
X138833Y231783D01*
X138872Y231740D01*
X138914Y231700D01*
X138959Y231662D01*
X139006Y231627D01*
X139055Y231596D01*
X139106Y231568D01*
X139159Y231543D01*
X139214Y231522D01*
X139269Y231505D01*
X139326Y231491D01*
X139384Y231482D01*
X139442Y231476D01*
X139500Y231474D01*
X140623Y231474D01*
X140623Y233720D01*
X140624Y233720D02*
X140622Y233773D01*
X140616Y233827D01*
X140607Y233879D01*
X140594Y233931D01*
X140577Y233982D01*
X140556Y234031D01*
X140532Y234079D01*
X140505Y234125D01*
X140475Y234169D01*
X140441Y234211D01*
X140405Y234250D01*
X140365Y234286D01*
X140324Y234320D01*
X140280Y234350D01*
X140234Y234377D01*
X140186Y234401D01*
X140137Y234422D01*
X140086Y234439D01*
X140034Y234452D01*
X139982Y234461D01*
X139928Y234467D01*
X139875Y234469D01*
X138877Y234469D01*
X142880Y235966D02*
X142880Y231474D01*
X144127Y231474D01*
X144180Y231476D01*
X144234Y231482D01*
X144286Y231491D01*
X144338Y231504D01*
X144389Y231521D01*
X144438Y231542D01*
X144486Y231566D01*
X144532Y231593D01*
X144576Y231623D01*
X144617Y231657D01*
X144657Y231693D01*
X144693Y231732D01*
X144727Y231774D01*
X144757Y231818D01*
X144784Y231864D01*
X144808Y231912D01*
X144829Y231961D01*
X144846Y232012D01*
X144859Y232064D01*
X144868Y232116D01*
X144874Y232170D01*
X144876Y232223D01*
X144876Y233720D01*
X144874Y233773D01*
X144868Y233827D01*
X144859Y233879D01*
X144846Y233931D01*
X144829Y233982D01*
X144808Y234031D01*
X144784Y234079D01*
X144757Y234125D01*
X144727Y234169D01*
X144693Y234211D01*
X144657Y234250D01*
X144617Y234286D01*
X144576Y234320D01*
X144532Y234350D01*
X144486Y234377D01*
X144438Y234401D01*
X144389Y234422D01*
X144338Y234439D01*
X144286Y234452D01*
X144234Y234461D01*
X144180Y234467D01*
X144127Y234469D01*
X142880Y234469D01*
X146557Y231474D02*
X146807Y231474D01*
X146557Y231474D02*
X146557Y231724D01*
X146807Y231724D01*
X146807Y231474D01*
X146433Y230476D01*
X151351Y231474D02*
X151351Y235966D01*
X150852Y231474D02*
X151851Y231474D01*
X151851Y235966D02*
X150852Y235966D01*
X154051Y235966D02*
X154051Y231474D01*
X153552Y231474D02*
X154551Y231474D01*
X154551Y235966D02*
X153552Y235966D01*
X157751Y231474D02*
X157814Y231476D01*
X157876Y231482D01*
X157938Y231492D01*
X157999Y231505D01*
X158059Y231523D01*
X158118Y231544D01*
X158176Y231569D01*
X158232Y231597D01*
X158286Y231629D01*
X158338Y231665D01*
X158387Y231703D01*
X158434Y231745D01*
X158479Y231789D01*
X158520Y231836D01*
X158558Y231885D01*
X158594Y231937D01*
X158626Y231991D01*
X158654Y232047D01*
X158679Y232105D01*
X158700Y232164D01*
X158718Y232224D01*
X158731Y232285D01*
X158741Y232347D01*
X158747Y232409D01*
X158749Y232472D01*
X157751Y231474D02*
X157663Y231476D01*
X157576Y231481D01*
X157489Y231490D01*
X157402Y231503D01*
X157316Y231519D01*
X157231Y231539D01*
X157146Y231563D01*
X157063Y231589D01*
X156980Y231620D01*
X156900Y231654D01*
X156820Y231691D01*
X156742Y231731D01*
X156666Y231774D01*
X156592Y231821D01*
X156520Y231871D01*
X156450Y231923D01*
X156382Y231979D01*
X156316Y232037D01*
X156253Y232098D01*
X156379Y234968D02*
X156381Y235028D01*
X156386Y235088D01*
X156395Y235148D01*
X156408Y235207D01*
X156424Y235265D01*
X156444Y235322D01*
X156467Y235378D01*
X156493Y235432D01*
X156523Y235484D01*
X156556Y235535D01*
X156591Y235583D01*
X156630Y235630D01*
X156671Y235674D01*
X156715Y235715D01*
X156762Y235754D01*
X156810Y235789D01*
X156861Y235822D01*
X156913Y235852D01*
X156967Y235878D01*
X157023Y235901D01*
X157080Y235921D01*
X157138Y235937D01*
X157197Y235950D01*
X157257Y235959D01*
X157317Y235964D01*
X157377Y235966D01*
X157463Y235964D01*
X157549Y235958D01*
X157634Y235948D01*
X157719Y235934D01*
X157803Y235917D01*
X157887Y235895D01*
X157969Y235870D01*
X158050Y235841D01*
X158130Y235808D01*
X158207Y235772D01*
X158284Y235732D01*
X158358Y235688D01*
X158430Y235642D01*
X158500Y235592D01*
X156877Y234094D02*
X156825Y234127D01*
X156775Y234164D01*
X156727Y234203D01*
X156681Y234245D01*
X156638Y234290D01*
X156598Y234337D01*
X156561Y234386D01*
X156527Y234438D01*
X156497Y234492D01*
X156469Y234548D01*
X156445Y234605D01*
X156425Y234663D01*
X156408Y234723D01*
X156395Y234783D01*
X156386Y234844D01*
X156380Y234906D01*
X156378Y234968D01*
X158250Y233346D02*
X158302Y233313D01*
X158352Y233276D01*
X158400Y233237D01*
X158446Y233195D01*
X158489Y233150D01*
X158529Y233103D01*
X158566Y233054D01*
X158600Y233002D01*
X158630Y232948D01*
X158658Y232892D01*
X158682Y232835D01*
X158702Y232777D01*
X158719Y232717D01*
X158732Y232657D01*
X158741Y232596D01*
X158747Y232534D01*
X158749Y232472D01*
X158250Y233346D02*
X156878Y234094D01*
X161308Y231474D02*
X162306Y231474D01*
X161308Y231474D02*
X161255Y231476D01*
X161201Y231482D01*
X161149Y231491D01*
X161097Y231504D01*
X161046Y231521D01*
X160997Y231542D01*
X160949Y231566D01*
X160903Y231593D01*
X160859Y231623D01*
X160818Y231657D01*
X160778Y231693D01*
X160742Y231733D01*
X160708Y231774D01*
X160678Y231818D01*
X160651Y231864D01*
X160627Y231912D01*
X160606Y231961D01*
X160589Y232012D01*
X160576Y232064D01*
X160567Y232116D01*
X160561Y232170D01*
X160559Y232223D01*
X160559Y233720D01*
X160561Y233773D01*
X160567Y233827D01*
X160576Y233879D01*
X160589Y233931D01*
X160606Y233982D01*
X160627Y234031D01*
X160651Y234079D01*
X160678Y234125D01*
X160708Y234169D01*
X160742Y234211D01*
X160778Y234250D01*
X160818Y234286D01*
X160859Y234320D01*
X160903Y234350D01*
X160949Y234377D01*
X160997Y234401D01*
X161046Y234422D01*
X161097Y234439D01*
X161149Y234452D01*
X161201Y234461D01*
X161255Y234467D01*
X161308Y234469D01*
X162306Y234469D01*
X98918Y237824D02*
X97421Y242316D01*
X100416Y242316D02*
X98918Y237824D01*
X102869Y237824D02*
X104117Y237824D01*
X102869Y237824D02*
X102816Y237826D01*
X102762Y237832D01*
X102710Y237841D01*
X102658Y237854D01*
X102607Y237871D01*
X102558Y237892D01*
X102510Y237916D01*
X102464Y237943D01*
X102420Y237973D01*
X102379Y238007D01*
X102339Y238043D01*
X102303Y238083D01*
X102269Y238124D01*
X102239Y238168D01*
X102212Y238214D01*
X102188Y238262D01*
X102167Y238311D01*
X102150Y238362D01*
X102137Y238414D01*
X102128Y238466D01*
X102122Y238520D01*
X102120Y238573D01*
X102120Y239820D01*
X102122Y239881D01*
X102128Y239943D01*
X102137Y240003D01*
X102150Y240063D01*
X102167Y240123D01*
X102187Y240181D01*
X102211Y240237D01*
X102239Y240292D01*
X102269Y240345D01*
X102303Y240397D01*
X102340Y240446D01*
X102380Y240492D01*
X102423Y240536D01*
X102469Y240578D01*
X102517Y240616D01*
X102567Y240652D01*
X102619Y240684D01*
X102673Y240713D01*
X102729Y240739D01*
X102786Y240761D01*
X102845Y240780D01*
X102904Y240795D01*
X102965Y240806D01*
X103026Y240814D01*
X103087Y240818D01*
X103149Y240818D01*
X103210Y240814D01*
X103271Y240806D01*
X103332Y240795D01*
X103391Y240780D01*
X103450Y240761D01*
X103507Y240739D01*
X103563Y240713D01*
X103617Y240684D01*
X103669Y240652D01*
X103719Y240616D01*
X103767Y240578D01*
X103813Y240536D01*
X103856Y240492D01*
X103896Y240446D01*
X103933Y240397D01*
X103967Y240345D01*
X103997Y240292D01*
X104025Y240237D01*
X104049Y240181D01*
X104069Y240123D01*
X104086Y240063D01*
X104099Y240003D01*
X104108Y239943D01*
X104114Y239881D01*
X104116Y239820D01*
X104117Y239820D02*
X104117Y239321D01*
X102120Y239321D01*
X106170Y237824D02*
X106170Y240819D01*
X107418Y240819D01*
X107471Y240817D01*
X107525Y240811D01*
X107577Y240802D01*
X107629Y240789D01*
X107680Y240772D01*
X107729Y240751D01*
X107777Y240727D01*
X107823Y240700D01*
X107867Y240670D01*
X107908Y240636D01*
X107948Y240600D01*
X107984Y240561D01*
X108018Y240519D01*
X108048Y240475D01*
X108075Y240429D01*
X108099Y240381D01*
X108120Y240332D01*
X108137Y240281D01*
X108150Y240229D01*
X108159Y240177D01*
X108165Y240123D01*
X108167Y240070D01*
X108167Y237824D01*
X110220Y238822D02*
X110220Y239820D01*
X110222Y239881D01*
X110228Y239943D01*
X110237Y240003D01*
X110250Y240063D01*
X110267Y240123D01*
X110287Y240181D01*
X110311Y240237D01*
X110339Y240292D01*
X110369Y240345D01*
X110403Y240397D01*
X110440Y240446D01*
X110480Y240492D01*
X110523Y240536D01*
X110569Y240578D01*
X110617Y240616D01*
X110667Y240652D01*
X110719Y240684D01*
X110773Y240713D01*
X110829Y240739D01*
X110886Y240761D01*
X110945Y240780D01*
X111004Y240795D01*
X111065Y240806D01*
X111126Y240814D01*
X111187Y240818D01*
X111249Y240818D01*
X111310Y240814D01*
X111371Y240806D01*
X111432Y240795D01*
X111491Y240780D01*
X111550Y240761D01*
X111607Y240739D01*
X111663Y240713D01*
X111717Y240684D01*
X111769Y240652D01*
X111819Y240616D01*
X111867Y240578D01*
X111913Y240536D01*
X111956Y240492D01*
X111996Y240446D01*
X112033Y240397D01*
X112067Y240345D01*
X112097Y240292D01*
X112125Y240237D01*
X112149Y240181D01*
X112169Y240123D01*
X112186Y240063D01*
X112199Y240003D01*
X112208Y239943D01*
X112214Y239881D01*
X112216Y239820D01*
X112217Y239820D02*
X112217Y238822D01*
X112216Y238822D02*
X112214Y238761D01*
X112208Y238699D01*
X112199Y238639D01*
X112186Y238579D01*
X112169Y238519D01*
X112149Y238461D01*
X112125Y238405D01*
X112097Y238350D01*
X112067Y238297D01*
X112033Y238245D01*
X111996Y238196D01*
X111956Y238150D01*
X111913Y238106D01*
X111867Y238064D01*
X111819Y238026D01*
X111769Y237990D01*
X111717Y237958D01*
X111663Y237929D01*
X111607Y237903D01*
X111550Y237881D01*
X111491Y237862D01*
X111432Y237847D01*
X111371Y237836D01*
X111310Y237828D01*
X111249Y237824D01*
X111187Y237824D01*
X111126Y237828D01*
X111065Y237836D01*
X111004Y237847D01*
X110945Y237862D01*
X110886Y237881D01*
X110829Y237903D01*
X110773Y237929D01*
X110719Y237958D01*
X110667Y237990D01*
X110617Y238026D01*
X110569Y238064D01*
X110523Y238106D01*
X110480Y238150D01*
X110440Y238196D01*
X110403Y238245D01*
X110369Y238297D01*
X110339Y238350D01*
X110311Y238405D01*
X110287Y238461D01*
X110267Y238519D01*
X110250Y238579D01*
X110237Y238639D01*
X110228Y238699D01*
X110222Y238761D01*
X110220Y238822D01*
X114371Y237824D02*
X114371Y240819D01*
X116617Y240819D01*
X116670Y240817D01*
X116724Y240811D01*
X116776Y240802D01*
X116828Y240789D01*
X116879Y240772D01*
X116928Y240751D01*
X116976Y240727D01*
X117022Y240700D01*
X117066Y240670D01*
X117107Y240636D01*
X117147Y240600D01*
X117183Y240560D01*
X117217Y240519D01*
X117247Y240475D01*
X117274Y240429D01*
X117298Y240381D01*
X117319Y240332D01*
X117336Y240281D01*
X117349Y240229D01*
X117358Y240177D01*
X117364Y240123D01*
X117366Y240070D01*
X117366Y237824D01*
X115868Y237824D02*
X115868Y240819D01*
X121770Y240819D02*
X122768Y237824D01*
X123767Y240819D01*
X125571Y241318D02*
X126818Y242316D01*
X126818Y237824D01*
X125571Y237824D02*
X128066Y237824D01*
X129844Y237824D02*
X129844Y238074D01*
X130093Y238074D01*
X130093Y237824D01*
X129844Y237824D01*
X131870Y240070D02*
X131872Y240190D01*
X131878Y240310D01*
X131887Y240429D01*
X131901Y240548D01*
X131918Y240667D01*
X131940Y240785D01*
X131965Y240902D01*
X131994Y241019D01*
X132026Y241134D01*
X132063Y241249D01*
X132103Y241362D01*
X132146Y241473D01*
X132194Y241584D01*
X132244Y241692D01*
X132245Y241692D02*
X132266Y241749D01*
X132291Y241803D01*
X132320Y241857D01*
X132352Y241908D01*
X132387Y241957D01*
X132425Y242003D01*
X132467Y242047D01*
X132511Y242088D01*
X132557Y242126D01*
X132606Y242161D01*
X132658Y242193D01*
X132711Y242221D01*
X132766Y242246D01*
X132822Y242267D01*
X132880Y242285D01*
X132938Y242298D01*
X132998Y242308D01*
X133058Y242314D01*
X133118Y242316D01*
X133178Y242314D01*
X133238Y242308D01*
X133298Y242298D01*
X133356Y242285D01*
X133414Y242267D01*
X133470Y242246D01*
X133525Y242221D01*
X133578Y242193D01*
X133630Y242161D01*
X133679Y242126D01*
X133725Y242088D01*
X133769Y242047D01*
X133811Y242003D01*
X133849Y241957D01*
X133884Y241908D01*
X133916Y241857D01*
X133945Y241803D01*
X133970Y241749D01*
X133991Y241692D01*
X133992Y241692D02*
X134042Y241584D01*
X134090Y241473D01*
X134133Y241362D01*
X134173Y241249D01*
X134210Y241134D01*
X134242Y241019D01*
X134271Y240902D01*
X134296Y240785D01*
X134318Y240667D01*
X134335Y240548D01*
X134349Y240429D01*
X134358Y240310D01*
X134364Y240190D01*
X134366Y240070D01*
X131870Y240070D02*
X131872Y239950D01*
X131878Y239830D01*
X131887Y239711D01*
X131901Y239592D01*
X131918Y239473D01*
X131940Y239355D01*
X131965Y239238D01*
X131994Y239121D01*
X132026Y239006D01*
X132063Y238892D01*
X132103Y238778D01*
X132146Y238667D01*
X132194Y238557D01*
X132244Y238448D01*
X132245Y238448D02*
X132266Y238391D01*
X132291Y238337D01*
X132320Y238283D01*
X132352Y238232D01*
X132387Y238183D01*
X132425Y238137D01*
X132467Y238093D01*
X132511Y238052D01*
X132557Y238014D01*
X132606Y237979D01*
X132658Y237947D01*
X132711Y237919D01*
X132766Y237894D01*
X132822Y237873D01*
X132880Y237855D01*
X132938Y237842D01*
X132998Y237832D01*
X133058Y237826D01*
X133118Y237824D01*
X133992Y238448D02*
X134042Y238557D01*
X134090Y238667D01*
X134133Y238778D01*
X134173Y238892D01*
X134210Y239006D01*
X134242Y239121D01*
X134271Y239238D01*
X134296Y239355D01*
X134318Y239473D01*
X134335Y239592D01*
X134349Y239711D01*
X134358Y239830D01*
X134364Y239950D01*
X134366Y240070D01*
X133991Y238448D02*
X133970Y238391D01*
X133945Y238336D01*
X133916Y238283D01*
X133884Y238232D01*
X133849Y238183D01*
X133811Y238137D01*
X133769Y238093D01*
X133725Y238052D01*
X133679Y238014D01*
X133630Y237979D01*
X133578Y237947D01*
X133525Y237919D01*
X133470Y237894D01*
X133414Y237873D01*
X133356Y237855D01*
X133298Y237842D01*
X133238Y237832D01*
X133178Y237826D01*
X133118Y237824D01*
X132120Y238822D02*
X134116Y241318D01*
D11*
X144860Y189460D02*
X144860Y186460D01*
X154860Y186460D02*
X154860Y189460D01*
X154860Y186460D02*
X144860Y186460D01*
D12*
X140979Y164170D02*
X140979Y161091D01*
X140979Y164170D02*
X140977Y164260D01*
X140971Y164349D01*
X140961Y164438D01*
X140948Y164526D01*
X140930Y164614D01*
X140909Y164701D01*
X140884Y164787D01*
X140855Y164872D01*
X140823Y164956D01*
X140787Y165038D01*
X140747Y165118D01*
X140704Y165197D01*
X140657Y165273D01*
X140608Y165348D01*
X140555Y165420D01*
X140499Y165490D01*
X140440Y165557D01*
X140378Y165622D01*
X140313Y165684D01*
X140246Y165743D01*
X140176Y165799D01*
X140104Y165852D01*
X140029Y165901D01*
X139953Y165948D01*
X139874Y165991D01*
X139794Y166031D01*
X139712Y166067D01*
X139628Y166099D01*
X139543Y166128D01*
X139457Y166153D01*
X139370Y166174D01*
X139282Y166192D01*
X139194Y166205D01*
X139105Y166215D01*
X139016Y166221D01*
X138926Y166223D01*
X137900Y166223D01*
X137810Y166221D01*
X137721Y166215D01*
X137632Y166205D01*
X137544Y166192D01*
X137456Y166174D01*
X137369Y166153D01*
X137283Y166128D01*
X137198Y166099D01*
X137114Y166067D01*
X137032Y166031D01*
X136952Y165991D01*
X136874Y165948D01*
X136797Y165901D01*
X136722Y165852D01*
X136650Y165799D01*
X136580Y165743D01*
X136513Y165684D01*
X136448Y165622D01*
X136386Y165557D01*
X136327Y165490D01*
X136271Y165420D01*
X136218Y165348D01*
X136169Y165273D01*
X136122Y165197D01*
X136079Y165118D01*
X136039Y165038D01*
X136003Y164956D01*
X135971Y164872D01*
X135942Y164787D01*
X135917Y164701D01*
X135896Y164614D01*
X135878Y164527D01*
X135865Y164438D01*
X135855Y164349D01*
X135849Y164260D01*
X135847Y164170D01*
X135847Y161091D01*
X131741Y161091D01*
X131741Y166223D01*
X133794Y170091D02*
X131741Y172657D01*
X140979Y172657D01*
X140979Y170091D02*
X140979Y175223D01*
X140979Y179091D02*
X140979Y182170D01*
X140977Y182260D01*
X140971Y182349D01*
X140961Y182438D01*
X140948Y182526D01*
X140930Y182614D01*
X140909Y182701D01*
X140884Y182787D01*
X140855Y182872D01*
X140823Y182956D01*
X140787Y183038D01*
X140747Y183118D01*
X140704Y183197D01*
X140657Y183273D01*
X140608Y183348D01*
X140555Y183420D01*
X140499Y183490D01*
X140440Y183557D01*
X140378Y183622D01*
X140313Y183684D01*
X140246Y183743D01*
X140176Y183799D01*
X140104Y183852D01*
X140029Y183901D01*
X139953Y183948D01*
X139874Y183991D01*
X139794Y184031D01*
X139712Y184067D01*
X139628Y184099D01*
X139543Y184128D01*
X139457Y184153D01*
X139370Y184174D01*
X139282Y184192D01*
X139194Y184205D01*
X139105Y184215D01*
X139016Y184221D01*
X138926Y184223D01*
X137900Y184223D01*
X137810Y184221D01*
X137721Y184215D01*
X137632Y184205D01*
X137544Y184192D01*
X137456Y184174D01*
X137369Y184153D01*
X137283Y184128D01*
X137198Y184099D01*
X137114Y184067D01*
X137032Y184031D01*
X136952Y183991D01*
X136874Y183948D01*
X136797Y183901D01*
X136722Y183852D01*
X136650Y183799D01*
X136580Y183743D01*
X136513Y183684D01*
X136448Y183622D01*
X136386Y183557D01*
X136327Y183490D01*
X136271Y183420D01*
X136218Y183348D01*
X136169Y183273D01*
X136122Y183197D01*
X136079Y183118D01*
X136039Y183038D01*
X136003Y182956D01*
X135971Y182872D01*
X135942Y182787D01*
X135917Y182701D01*
X135896Y182614D01*
X135878Y182527D01*
X135865Y182438D01*
X135855Y182349D01*
X135849Y182260D01*
X135847Y182170D01*
X135847Y179091D01*
X131741Y179091D01*
X131741Y184223D01*
D11*
X144860Y148820D02*
X144860Y145820D01*
X154860Y145820D02*
X154860Y148820D01*
X154860Y145820D02*
X144860Y145820D01*
D12*
X140979Y123530D02*
X140979Y120451D01*
X140979Y123530D02*
X140977Y123620D01*
X140971Y123709D01*
X140961Y123798D01*
X140948Y123886D01*
X140930Y123974D01*
X140909Y124061D01*
X140884Y124147D01*
X140855Y124232D01*
X140823Y124316D01*
X140787Y124398D01*
X140747Y124478D01*
X140704Y124557D01*
X140657Y124633D01*
X140608Y124708D01*
X140555Y124780D01*
X140499Y124850D01*
X140440Y124917D01*
X140378Y124982D01*
X140313Y125044D01*
X140246Y125103D01*
X140176Y125159D01*
X140104Y125212D01*
X140029Y125261D01*
X139953Y125308D01*
X139874Y125351D01*
X139794Y125391D01*
X139712Y125427D01*
X139628Y125459D01*
X139543Y125488D01*
X139457Y125513D01*
X139370Y125534D01*
X139282Y125552D01*
X139194Y125565D01*
X139105Y125575D01*
X139016Y125581D01*
X138926Y125583D01*
X137900Y125583D01*
X137810Y125581D01*
X137721Y125575D01*
X137632Y125565D01*
X137544Y125552D01*
X137456Y125534D01*
X137369Y125513D01*
X137283Y125488D01*
X137198Y125459D01*
X137114Y125427D01*
X137032Y125391D01*
X136952Y125351D01*
X136874Y125308D01*
X136797Y125261D01*
X136722Y125212D01*
X136650Y125159D01*
X136580Y125103D01*
X136513Y125044D01*
X136448Y124982D01*
X136386Y124917D01*
X136327Y124850D01*
X136271Y124780D01*
X136218Y124708D01*
X136169Y124633D01*
X136122Y124557D01*
X136079Y124478D01*
X136039Y124398D01*
X136003Y124316D01*
X135971Y124232D01*
X135942Y124147D01*
X135917Y124061D01*
X135896Y123974D01*
X135878Y123887D01*
X135865Y123798D01*
X135855Y123709D01*
X135849Y123620D01*
X135847Y123530D01*
X135847Y120451D01*
X131741Y120451D01*
X131741Y125583D01*
X131741Y132274D02*
X131743Y132370D01*
X131749Y132465D01*
X131759Y132560D01*
X131773Y132654D01*
X131790Y132748D01*
X131812Y132841D01*
X131837Y132933D01*
X131866Y133024D01*
X131899Y133114D01*
X131936Y133202D01*
X131976Y133289D01*
X132019Y133373D01*
X132067Y133456D01*
X132117Y133537D01*
X132171Y133616D01*
X132228Y133693D01*
X132288Y133767D01*
X132352Y133839D01*
X132418Y133907D01*
X132487Y133974D01*
X132558Y134037D01*
X132632Y134097D01*
X132709Y134154D01*
X132788Y134208D01*
X132869Y134258D01*
X132952Y134306D01*
X133036Y134349D01*
X133123Y134389D01*
X133211Y134426D01*
X133301Y134459D01*
X133392Y134488D01*
X133484Y134513D01*
X133577Y134535D01*
X133671Y134552D01*
X133765Y134566D01*
X133860Y134576D01*
X133956Y134582D01*
X134051Y134584D01*
X131741Y132274D02*
X131743Y132168D01*
X131749Y132061D01*
X131758Y131955D01*
X131772Y131849D01*
X131789Y131744D01*
X131810Y131639D01*
X131834Y131536D01*
X131863Y131433D01*
X131895Y131331D01*
X131930Y131231D01*
X131970Y131132D01*
X132013Y131034D01*
X132059Y130938D01*
X132109Y130844D01*
X132162Y130751D01*
X132218Y130661D01*
X132278Y130572D01*
X132340Y130486D01*
X132406Y130402D01*
X132475Y130321D01*
X132546Y130242D01*
X132621Y130165D01*
X132698Y130092D01*
X132778Y130021D01*
X132860Y129953D01*
X132944Y129888D01*
X133031Y129826D01*
X133120Y129768D01*
X133211Y129712D01*
X133304Y129660D01*
X133399Y129611D01*
X133496Y129566D01*
X133594Y129524D01*
X133693Y129486D01*
X133794Y129451D01*
X135848Y133814D02*
X135780Y133882D01*
X135710Y133947D01*
X135638Y134010D01*
X135563Y134070D01*
X135486Y134127D01*
X135407Y134180D01*
X135326Y134231D01*
X135243Y134279D01*
X135159Y134323D01*
X135072Y134364D01*
X134984Y134402D01*
X134895Y134436D01*
X134804Y134467D01*
X134713Y134494D01*
X134620Y134518D01*
X134526Y134538D01*
X134432Y134555D01*
X134337Y134567D01*
X134242Y134577D01*
X134147Y134582D01*
X134051Y134584D01*
X135847Y133813D02*
X140979Y129451D01*
X140979Y134583D01*
X136360Y138451D02*
X136178Y138453D01*
X135997Y138460D01*
X135815Y138471D01*
X135634Y138486D01*
X135453Y138505D01*
X135273Y138529D01*
X135094Y138557D01*
X134915Y138589D01*
X134737Y138626D01*
X134560Y138667D01*
X134384Y138712D01*
X134209Y138761D01*
X134035Y138815D01*
X133863Y138872D01*
X133692Y138934D01*
X133522Y139000D01*
X133354Y139069D01*
X133188Y139143D01*
X133024Y139221D01*
X132945Y139250D01*
X132868Y139282D01*
X132791Y139318D01*
X132717Y139357D01*
X132644Y139400D01*
X132574Y139446D01*
X132505Y139494D01*
X132439Y139546D01*
X132375Y139601D01*
X132313Y139658D01*
X132255Y139718D01*
X132198Y139781D01*
X132145Y139846D01*
X132095Y139913D01*
X132047Y139983D01*
X132003Y140054D01*
X131962Y140128D01*
X131924Y140203D01*
X131890Y140280D01*
X131859Y140358D01*
X131832Y140437D01*
X131808Y140518D01*
X131787Y140600D01*
X131771Y140682D01*
X131758Y140765D01*
X131748Y140849D01*
X131743Y140933D01*
X131741Y141017D01*
X131743Y141101D01*
X131748Y141185D01*
X131758Y141269D01*
X131771Y141352D01*
X131787Y141434D01*
X131808Y141516D01*
X131832Y141597D01*
X131859Y141676D01*
X131890Y141754D01*
X131924Y141831D01*
X131962Y141906D01*
X132003Y141980D01*
X132047Y142051D01*
X132095Y142121D01*
X132145Y142188D01*
X132198Y142253D01*
X132255Y142316D01*
X132314Y142376D01*
X132375Y142433D01*
X132439Y142488D01*
X132505Y142540D01*
X132574Y142588D01*
X132644Y142634D01*
X132717Y142677D01*
X132792Y142716D01*
X132868Y142752D01*
X132945Y142784D01*
X133024Y142813D01*
X133188Y142891D01*
X133354Y142965D01*
X133522Y143034D01*
X133692Y143100D01*
X133863Y143162D01*
X134035Y143219D01*
X134209Y143273D01*
X134384Y143322D01*
X134560Y143367D01*
X134737Y143408D01*
X134915Y143445D01*
X135094Y143477D01*
X135273Y143505D01*
X135453Y143529D01*
X135634Y143548D01*
X135815Y143563D01*
X135997Y143574D01*
X136178Y143581D01*
X136360Y143583D01*
X136360Y138451D02*
X136542Y138453D01*
X136723Y138460D01*
X136905Y138471D01*
X137086Y138486D01*
X137267Y138505D01*
X137447Y138529D01*
X137626Y138557D01*
X137805Y138589D01*
X137983Y138626D01*
X138160Y138667D01*
X138336Y138712D01*
X138511Y138761D01*
X138685Y138815D01*
X138857Y138872D01*
X139028Y138934D01*
X139198Y139000D01*
X139366Y139069D01*
X139532Y139143D01*
X139696Y139221D01*
X139775Y139250D01*
X139852Y139282D01*
X139929Y139318D01*
X140003Y139357D01*
X140076Y139400D01*
X140146Y139446D01*
X140215Y139494D01*
X140281Y139546D01*
X140345Y139601D01*
X140407Y139658D01*
X140465Y139718D01*
X140522Y139781D01*
X140575Y139846D01*
X140625Y139913D01*
X140673Y139983D01*
X140717Y140054D01*
X140758Y140128D01*
X140796Y140203D01*
X140830Y140280D01*
X140861Y140358D01*
X140888Y140437D01*
X140912Y140518D01*
X140933Y140600D01*
X140949Y140682D01*
X140962Y140765D01*
X140972Y140849D01*
X140977Y140933D01*
X140979Y141017D01*
X139696Y142813D02*
X139532Y142891D01*
X139366Y142965D01*
X139198Y143034D01*
X139028Y143100D01*
X138857Y143162D01*
X138685Y143219D01*
X138511Y143273D01*
X138336Y143322D01*
X138160Y143367D01*
X137983Y143408D01*
X137805Y143445D01*
X137626Y143477D01*
X137447Y143505D01*
X137267Y143529D01*
X137086Y143548D01*
X136905Y143563D01*
X136723Y143574D01*
X136542Y143581D01*
X136360Y143583D01*
X139696Y142813D02*
X139775Y142784D01*
X139852Y142752D01*
X139929Y142716D01*
X140003Y142677D01*
X140076Y142634D01*
X140146Y142588D01*
X140215Y142540D01*
X140281Y142488D01*
X140345Y142433D01*
X140407Y142376D01*
X140465Y142316D01*
X140522Y142253D01*
X140575Y142188D01*
X140625Y142121D01*
X140673Y142051D01*
X140717Y141980D01*
X140758Y141906D01*
X140796Y141831D01*
X140830Y141754D01*
X140861Y141676D01*
X140888Y141597D01*
X140912Y141516D01*
X140933Y141434D01*
X140949Y141352D01*
X140962Y141269D01*
X140972Y141185D01*
X140977Y141101D01*
X140979Y141017D01*
X138926Y138964D02*
X133794Y143070D01*
D11*
X144860Y108180D02*
X144860Y105180D01*
X154860Y105180D02*
X154860Y108180D01*
X154860Y105180D02*
X144860Y105180D01*
D12*
X140979Y82890D02*
X140979Y79811D01*
X140979Y82890D02*
X140977Y82980D01*
X140971Y83069D01*
X140961Y83158D01*
X140948Y83246D01*
X140930Y83334D01*
X140909Y83421D01*
X140884Y83507D01*
X140855Y83592D01*
X140823Y83676D01*
X140787Y83758D01*
X140747Y83838D01*
X140704Y83917D01*
X140657Y83993D01*
X140608Y84068D01*
X140555Y84140D01*
X140499Y84210D01*
X140440Y84277D01*
X140378Y84342D01*
X140313Y84404D01*
X140246Y84463D01*
X140176Y84519D01*
X140104Y84572D01*
X140029Y84621D01*
X139953Y84668D01*
X139874Y84711D01*
X139794Y84751D01*
X139712Y84787D01*
X139628Y84819D01*
X139543Y84848D01*
X139457Y84873D01*
X139370Y84894D01*
X139282Y84912D01*
X139194Y84925D01*
X139105Y84935D01*
X139016Y84941D01*
X138926Y84943D01*
X137900Y84943D01*
X137810Y84941D01*
X137721Y84935D01*
X137632Y84925D01*
X137544Y84912D01*
X137456Y84894D01*
X137369Y84873D01*
X137283Y84848D01*
X137198Y84819D01*
X137114Y84787D01*
X137032Y84751D01*
X136952Y84711D01*
X136874Y84668D01*
X136797Y84621D01*
X136722Y84572D01*
X136650Y84519D01*
X136580Y84463D01*
X136513Y84404D01*
X136448Y84342D01*
X136386Y84277D01*
X136327Y84210D01*
X136271Y84140D01*
X136218Y84068D01*
X136169Y83993D01*
X136122Y83917D01*
X136079Y83838D01*
X136039Y83758D01*
X136003Y83676D01*
X135971Y83592D01*
X135942Y83507D01*
X135917Y83421D01*
X135896Y83334D01*
X135878Y83247D01*
X135865Y83158D01*
X135855Y83069D01*
X135849Y82980D01*
X135847Y82890D01*
X135847Y79811D01*
X131741Y79811D01*
X131741Y84943D01*
X131741Y91634D02*
X131743Y91730D01*
X131749Y91825D01*
X131759Y91920D01*
X131773Y92014D01*
X131790Y92108D01*
X131812Y92201D01*
X131837Y92293D01*
X131866Y92384D01*
X131899Y92474D01*
X131936Y92562D01*
X131976Y92649D01*
X132019Y92733D01*
X132067Y92816D01*
X132117Y92897D01*
X132171Y92976D01*
X132228Y93053D01*
X132288Y93127D01*
X132352Y93199D01*
X132418Y93267D01*
X132487Y93334D01*
X132558Y93397D01*
X132632Y93457D01*
X132709Y93514D01*
X132788Y93568D01*
X132869Y93618D01*
X132952Y93666D01*
X133036Y93709D01*
X133123Y93749D01*
X133211Y93786D01*
X133301Y93819D01*
X133392Y93848D01*
X133484Y93873D01*
X133577Y93895D01*
X133671Y93912D01*
X133765Y93926D01*
X133860Y93936D01*
X133956Y93942D01*
X134051Y93944D01*
X131741Y91634D02*
X131743Y91528D01*
X131749Y91421D01*
X131758Y91315D01*
X131772Y91209D01*
X131789Y91104D01*
X131810Y90999D01*
X131834Y90896D01*
X131863Y90793D01*
X131895Y90691D01*
X131930Y90591D01*
X131970Y90492D01*
X132013Y90394D01*
X132059Y90298D01*
X132109Y90204D01*
X132162Y90111D01*
X132218Y90021D01*
X132278Y89932D01*
X132340Y89846D01*
X132406Y89762D01*
X132475Y89681D01*
X132546Y89602D01*
X132621Y89525D01*
X132698Y89452D01*
X132778Y89381D01*
X132860Y89313D01*
X132944Y89248D01*
X133031Y89186D01*
X133120Y89128D01*
X133211Y89072D01*
X133304Y89020D01*
X133399Y88971D01*
X133496Y88926D01*
X133594Y88884D01*
X133693Y88846D01*
X133794Y88811D01*
X135848Y93174D02*
X135780Y93242D01*
X135710Y93307D01*
X135638Y93370D01*
X135563Y93430D01*
X135486Y93487D01*
X135407Y93540D01*
X135326Y93591D01*
X135243Y93639D01*
X135159Y93683D01*
X135072Y93724D01*
X134984Y93762D01*
X134895Y93796D01*
X134804Y93827D01*
X134713Y93854D01*
X134620Y93878D01*
X134526Y93898D01*
X134432Y93915D01*
X134337Y93927D01*
X134242Y93937D01*
X134147Y93942D01*
X134051Y93944D01*
X135847Y93173D02*
X140979Y88811D01*
X140979Y93943D01*
X140979Y97811D02*
X140979Y100890D01*
X140977Y100980D01*
X140971Y101069D01*
X140961Y101158D01*
X140948Y101246D01*
X140930Y101334D01*
X140909Y101421D01*
X140884Y101507D01*
X140855Y101592D01*
X140823Y101676D01*
X140787Y101758D01*
X140747Y101838D01*
X140704Y101917D01*
X140657Y101993D01*
X140608Y102068D01*
X140555Y102140D01*
X140499Y102210D01*
X140440Y102277D01*
X140378Y102342D01*
X140313Y102404D01*
X140246Y102463D01*
X140176Y102519D01*
X140104Y102572D01*
X140029Y102621D01*
X139953Y102668D01*
X139874Y102711D01*
X139794Y102751D01*
X139712Y102787D01*
X139628Y102819D01*
X139543Y102848D01*
X139457Y102873D01*
X139370Y102894D01*
X139282Y102912D01*
X139194Y102925D01*
X139105Y102935D01*
X139016Y102941D01*
X138926Y102943D01*
X137900Y102943D01*
X137810Y102941D01*
X137721Y102935D01*
X137632Y102925D01*
X137544Y102912D01*
X137456Y102894D01*
X137369Y102873D01*
X137283Y102848D01*
X137198Y102819D01*
X137114Y102787D01*
X137032Y102751D01*
X136952Y102711D01*
X136874Y102668D01*
X136797Y102621D01*
X136722Y102572D01*
X136650Y102519D01*
X136580Y102463D01*
X136513Y102404D01*
X136448Y102342D01*
X136386Y102277D01*
X136327Y102210D01*
X136271Y102140D01*
X136218Y102068D01*
X136169Y101993D01*
X136122Y101917D01*
X136079Y101838D01*
X136039Y101758D01*
X136003Y101676D01*
X135971Y101592D01*
X135942Y101507D01*
X135917Y101421D01*
X135896Y101334D01*
X135878Y101247D01*
X135865Y101158D01*
X135855Y101069D01*
X135849Y100980D01*
X135847Y100890D01*
X135847Y97811D01*
X131741Y97811D01*
X131741Y102943D01*
D11*
X104220Y186460D02*
X104220Y189460D01*
X114220Y189460D02*
X114220Y186460D01*
X104220Y186460D01*
D12*
X100339Y164170D02*
X100339Y161091D01*
X100339Y164170D02*
X100337Y164260D01*
X100331Y164349D01*
X100321Y164438D01*
X100308Y164526D01*
X100290Y164614D01*
X100269Y164701D01*
X100244Y164787D01*
X100215Y164872D01*
X100183Y164956D01*
X100147Y165038D01*
X100107Y165118D01*
X100064Y165197D01*
X100017Y165273D01*
X99968Y165348D01*
X99915Y165420D01*
X99859Y165490D01*
X99800Y165557D01*
X99738Y165622D01*
X99673Y165684D01*
X99606Y165743D01*
X99536Y165799D01*
X99464Y165852D01*
X99389Y165901D01*
X99313Y165948D01*
X99234Y165991D01*
X99154Y166031D01*
X99072Y166067D01*
X98988Y166099D01*
X98903Y166128D01*
X98817Y166153D01*
X98730Y166174D01*
X98642Y166192D01*
X98554Y166205D01*
X98465Y166215D01*
X98376Y166221D01*
X98286Y166223D01*
X97260Y166223D01*
X97170Y166221D01*
X97081Y166215D01*
X96992Y166205D01*
X96904Y166192D01*
X96816Y166174D01*
X96729Y166153D01*
X96643Y166128D01*
X96558Y166099D01*
X96474Y166067D01*
X96392Y166031D01*
X96312Y165991D01*
X96234Y165948D01*
X96157Y165901D01*
X96082Y165852D01*
X96010Y165799D01*
X95940Y165743D01*
X95873Y165684D01*
X95808Y165622D01*
X95746Y165557D01*
X95687Y165490D01*
X95631Y165420D01*
X95578Y165348D01*
X95529Y165273D01*
X95482Y165197D01*
X95439Y165118D01*
X95399Y165038D01*
X95363Y164956D01*
X95331Y164872D01*
X95302Y164787D01*
X95277Y164701D01*
X95256Y164614D01*
X95238Y164527D01*
X95225Y164438D01*
X95215Y164349D01*
X95209Y164260D01*
X95207Y164170D01*
X95207Y161091D01*
X91101Y161091D01*
X91101Y166223D01*
X100339Y170091D02*
X100339Y173170D01*
X100337Y173260D01*
X100331Y173349D01*
X100321Y173438D01*
X100308Y173526D01*
X100290Y173614D01*
X100269Y173701D01*
X100244Y173787D01*
X100215Y173872D01*
X100183Y173956D01*
X100147Y174038D01*
X100107Y174118D01*
X100064Y174197D01*
X100017Y174273D01*
X99968Y174348D01*
X99915Y174420D01*
X99859Y174490D01*
X99800Y174557D01*
X99738Y174622D01*
X99673Y174684D01*
X99606Y174743D01*
X99536Y174799D01*
X99464Y174852D01*
X99389Y174901D01*
X99313Y174948D01*
X99234Y174991D01*
X99154Y175031D01*
X99072Y175067D01*
X98988Y175099D01*
X98903Y175128D01*
X98817Y175153D01*
X98730Y175174D01*
X98642Y175192D01*
X98554Y175205D01*
X98465Y175215D01*
X98376Y175221D01*
X98286Y175223D01*
X97260Y175223D01*
X97170Y175221D01*
X97081Y175215D01*
X96992Y175205D01*
X96904Y175192D01*
X96816Y175174D01*
X96729Y175153D01*
X96643Y175128D01*
X96558Y175099D01*
X96474Y175067D01*
X96392Y175031D01*
X96312Y174991D01*
X96234Y174948D01*
X96157Y174901D01*
X96082Y174852D01*
X96010Y174799D01*
X95940Y174743D01*
X95873Y174684D01*
X95808Y174622D01*
X95746Y174557D01*
X95687Y174490D01*
X95631Y174420D01*
X95578Y174348D01*
X95529Y174273D01*
X95482Y174197D01*
X95439Y174118D01*
X95399Y174038D01*
X95363Y173956D01*
X95331Y173872D01*
X95302Y173787D01*
X95277Y173701D01*
X95256Y173614D01*
X95238Y173527D01*
X95225Y173438D01*
X95215Y173349D01*
X95209Y173260D01*
X95207Y173170D01*
X95207Y170091D01*
X91101Y170091D01*
X91101Y175223D01*
X100339Y179091D02*
X100339Y182170D01*
X100337Y182260D01*
X100331Y182349D01*
X100321Y182438D01*
X100308Y182526D01*
X100290Y182614D01*
X100269Y182701D01*
X100244Y182787D01*
X100215Y182872D01*
X100183Y182956D01*
X100147Y183038D01*
X100107Y183118D01*
X100064Y183197D01*
X100017Y183273D01*
X99968Y183348D01*
X99915Y183420D01*
X99859Y183490D01*
X99800Y183557D01*
X99738Y183622D01*
X99673Y183684D01*
X99606Y183743D01*
X99536Y183799D01*
X99464Y183852D01*
X99389Y183901D01*
X99313Y183948D01*
X99234Y183991D01*
X99154Y184031D01*
X99072Y184067D01*
X98988Y184099D01*
X98903Y184128D01*
X98817Y184153D01*
X98730Y184174D01*
X98642Y184192D01*
X98554Y184205D01*
X98465Y184215D01*
X98376Y184221D01*
X98286Y184223D01*
X97260Y184223D01*
X97170Y184221D01*
X97081Y184215D01*
X96992Y184205D01*
X96904Y184192D01*
X96816Y184174D01*
X96729Y184153D01*
X96643Y184128D01*
X96558Y184099D01*
X96474Y184067D01*
X96392Y184031D01*
X96312Y183991D01*
X96234Y183948D01*
X96157Y183901D01*
X96082Y183852D01*
X96010Y183799D01*
X95940Y183743D01*
X95873Y183684D01*
X95808Y183622D01*
X95746Y183557D01*
X95687Y183490D01*
X95631Y183420D01*
X95578Y183348D01*
X95529Y183273D01*
X95482Y183197D01*
X95439Y183118D01*
X95399Y183038D01*
X95363Y182956D01*
X95331Y182872D01*
X95302Y182787D01*
X95277Y182701D01*
X95256Y182614D01*
X95238Y182527D01*
X95225Y182438D01*
X95215Y182349D01*
X95209Y182260D01*
X95207Y182170D01*
X95207Y179091D01*
X91101Y179091D01*
X91101Y184223D01*
D11*
X104220Y148820D02*
X104220Y145820D01*
X114220Y145820D02*
X114220Y148820D01*
X114220Y145820D02*
X104220Y145820D01*
D12*
X100339Y123530D02*
X100339Y120451D01*
X100339Y123530D02*
X100337Y123620D01*
X100331Y123709D01*
X100321Y123798D01*
X100308Y123886D01*
X100290Y123974D01*
X100269Y124061D01*
X100244Y124147D01*
X100215Y124232D01*
X100183Y124316D01*
X100147Y124398D01*
X100107Y124478D01*
X100064Y124557D01*
X100017Y124633D01*
X99968Y124708D01*
X99915Y124780D01*
X99859Y124850D01*
X99800Y124917D01*
X99738Y124982D01*
X99673Y125044D01*
X99606Y125103D01*
X99536Y125159D01*
X99464Y125212D01*
X99389Y125261D01*
X99313Y125308D01*
X99234Y125351D01*
X99154Y125391D01*
X99072Y125427D01*
X98988Y125459D01*
X98903Y125488D01*
X98817Y125513D01*
X98730Y125534D01*
X98642Y125552D01*
X98554Y125565D01*
X98465Y125575D01*
X98376Y125581D01*
X98286Y125583D01*
X97260Y125583D01*
X97170Y125581D01*
X97081Y125575D01*
X96992Y125565D01*
X96904Y125552D01*
X96816Y125534D01*
X96729Y125513D01*
X96643Y125488D01*
X96558Y125459D01*
X96474Y125427D01*
X96392Y125391D01*
X96312Y125351D01*
X96234Y125308D01*
X96157Y125261D01*
X96082Y125212D01*
X96010Y125159D01*
X95940Y125103D01*
X95873Y125044D01*
X95808Y124982D01*
X95746Y124917D01*
X95687Y124850D01*
X95631Y124780D01*
X95578Y124708D01*
X95529Y124633D01*
X95482Y124557D01*
X95439Y124478D01*
X95399Y124398D01*
X95363Y124316D01*
X95331Y124232D01*
X95302Y124147D01*
X95277Y124061D01*
X95256Y123974D01*
X95238Y123887D01*
X95225Y123798D01*
X95215Y123709D01*
X95209Y123620D01*
X95207Y123530D01*
X95207Y120451D01*
X91101Y120451D01*
X91101Y125583D01*
X95207Y129451D02*
X95207Y132530D01*
X95209Y132620D01*
X95215Y132709D01*
X95225Y132798D01*
X95238Y132887D01*
X95256Y132974D01*
X95277Y133061D01*
X95302Y133147D01*
X95331Y133232D01*
X95363Y133316D01*
X95399Y133398D01*
X95439Y133478D01*
X95482Y133557D01*
X95529Y133633D01*
X95578Y133708D01*
X95631Y133780D01*
X95687Y133850D01*
X95746Y133917D01*
X95808Y133982D01*
X95873Y134044D01*
X95940Y134103D01*
X96010Y134159D01*
X96082Y134212D01*
X96157Y134261D01*
X96234Y134308D01*
X96312Y134351D01*
X96392Y134391D01*
X96474Y134427D01*
X96558Y134459D01*
X96643Y134488D01*
X96729Y134513D01*
X96816Y134534D01*
X96904Y134552D01*
X96992Y134565D01*
X97081Y134575D01*
X97170Y134581D01*
X97260Y134583D01*
X97773Y134583D01*
X97872Y134581D01*
X97972Y134575D01*
X98071Y134566D01*
X98169Y134552D01*
X98267Y134535D01*
X98365Y134514D01*
X98461Y134489D01*
X98556Y134460D01*
X98651Y134428D01*
X98743Y134392D01*
X98835Y134353D01*
X98925Y134310D01*
X99013Y134264D01*
X99099Y134214D01*
X99183Y134161D01*
X99265Y134105D01*
X99345Y134045D01*
X99422Y133983D01*
X99497Y133917D01*
X99570Y133849D01*
X99639Y133778D01*
X99706Y133704D01*
X99770Y133628D01*
X99831Y133549D01*
X99889Y133468D01*
X99944Y133385D01*
X99995Y133300D01*
X100043Y133213D01*
X100088Y133124D01*
X100129Y133033D01*
X100167Y132941D01*
X100201Y132848D01*
X100231Y132753D01*
X100258Y132657D01*
X100281Y132560D01*
X100300Y132463D01*
X100315Y132364D01*
X100327Y132265D01*
X100335Y132166D01*
X100339Y132067D01*
X100339Y131967D01*
X100335Y131868D01*
X100327Y131769D01*
X100315Y131670D01*
X100300Y131571D01*
X100281Y131474D01*
X100258Y131377D01*
X100231Y131281D01*
X100201Y131186D01*
X100167Y131093D01*
X100129Y131001D01*
X100088Y130910D01*
X100043Y130821D01*
X99995Y130734D01*
X99944Y130649D01*
X99889Y130566D01*
X99831Y130485D01*
X99770Y130406D01*
X99706Y130330D01*
X99639Y130256D01*
X99570Y130185D01*
X99497Y130117D01*
X99422Y130051D01*
X99345Y129989D01*
X99265Y129929D01*
X99183Y129873D01*
X99099Y129820D01*
X99013Y129770D01*
X98925Y129724D01*
X98835Y129681D01*
X98743Y129642D01*
X98651Y129606D01*
X98556Y129574D01*
X98461Y129545D01*
X98365Y129520D01*
X98267Y129499D01*
X98169Y129482D01*
X98071Y129468D01*
X97972Y129459D01*
X97872Y129453D01*
X97773Y129451D01*
X95207Y129451D01*
X95081Y129453D01*
X94954Y129459D01*
X94828Y129469D01*
X94702Y129482D01*
X94577Y129500D01*
X94453Y129521D01*
X94329Y129546D01*
X94205Y129575D01*
X94083Y129608D01*
X93962Y129644D01*
X93842Y129684D01*
X93724Y129728D01*
X93607Y129776D01*
X93491Y129827D01*
X93377Y129881D01*
X93264Y129940D01*
X93154Y130001D01*
X93045Y130066D01*
X92939Y130134D01*
X92835Y130206D01*
X92733Y130280D01*
X92633Y130358D01*
X92536Y130439D01*
X92441Y130523D01*
X92349Y130609D01*
X92259Y130699D01*
X92173Y130791D01*
X92089Y130886D01*
X92008Y130983D01*
X91930Y131083D01*
X91856Y131185D01*
X91784Y131289D01*
X91716Y131395D01*
X91651Y131504D01*
X91590Y131614D01*
X91531Y131727D01*
X91477Y131841D01*
X91426Y131956D01*
X91378Y132074D01*
X91334Y132192D01*
X91294Y132312D01*
X91258Y132433D01*
X91225Y132555D01*
X91196Y132679D01*
X91171Y132802D01*
X91150Y132927D01*
X91132Y133052D01*
X91119Y133178D01*
X91109Y133304D01*
X91103Y133430D01*
X91101Y133557D01*
X92384Y139221D02*
X92548Y139143D01*
X92714Y139069D01*
X92882Y139000D01*
X93052Y138934D01*
X93223Y138872D01*
X93395Y138815D01*
X93569Y138761D01*
X93744Y138712D01*
X93920Y138667D01*
X94097Y138626D01*
X94275Y138589D01*
X94454Y138557D01*
X94633Y138529D01*
X94813Y138505D01*
X94994Y138486D01*
X95175Y138471D01*
X95357Y138460D01*
X95538Y138453D01*
X95720Y138451D01*
X92384Y139221D02*
X92305Y139250D01*
X92228Y139282D01*
X92151Y139318D01*
X92077Y139357D01*
X92004Y139400D01*
X91934Y139446D01*
X91865Y139494D01*
X91799Y139546D01*
X91735Y139601D01*
X91673Y139658D01*
X91615Y139718D01*
X91558Y139781D01*
X91505Y139846D01*
X91455Y139913D01*
X91407Y139983D01*
X91363Y140054D01*
X91322Y140128D01*
X91284Y140203D01*
X91250Y140280D01*
X91219Y140358D01*
X91192Y140437D01*
X91168Y140518D01*
X91147Y140600D01*
X91131Y140682D01*
X91118Y140765D01*
X91108Y140849D01*
X91103Y140933D01*
X91101Y141017D01*
X91103Y141101D01*
X91108Y141185D01*
X91118Y141269D01*
X91131Y141352D01*
X91147Y141434D01*
X91168Y141516D01*
X91192Y141597D01*
X91219Y141676D01*
X91250Y141754D01*
X91284Y141831D01*
X91322Y141906D01*
X91363Y141980D01*
X91407Y142051D01*
X91455Y142121D01*
X91505Y142188D01*
X91558Y142253D01*
X91615Y142316D01*
X91674Y142376D01*
X91735Y142433D01*
X91799Y142488D01*
X91865Y142540D01*
X91934Y142588D01*
X92004Y142634D01*
X92077Y142677D01*
X92152Y142716D01*
X92228Y142752D01*
X92305Y142784D01*
X92384Y142813D01*
X92548Y142891D01*
X92714Y142965D01*
X92882Y143034D01*
X93052Y143100D01*
X93223Y143162D01*
X93395Y143219D01*
X93569Y143273D01*
X93744Y143322D01*
X93920Y143367D01*
X94097Y143408D01*
X94275Y143445D01*
X94454Y143477D01*
X94633Y143505D01*
X94813Y143529D01*
X94994Y143548D01*
X95175Y143563D01*
X95357Y143574D01*
X95538Y143581D01*
X95720Y143583D01*
X95720Y138451D02*
X95902Y138453D01*
X96083Y138460D01*
X96265Y138471D01*
X96446Y138486D01*
X96627Y138505D01*
X96807Y138529D01*
X96986Y138557D01*
X97165Y138589D01*
X97343Y138626D01*
X97520Y138667D01*
X97696Y138712D01*
X97871Y138761D01*
X98045Y138815D01*
X98217Y138872D01*
X98388Y138934D01*
X98558Y139000D01*
X98726Y139069D01*
X98892Y139143D01*
X99056Y139221D01*
X99135Y139250D01*
X99212Y139282D01*
X99289Y139318D01*
X99363Y139357D01*
X99436Y139400D01*
X99506Y139446D01*
X99575Y139494D01*
X99641Y139546D01*
X99705Y139601D01*
X99767Y139658D01*
X99825Y139718D01*
X99882Y139781D01*
X99935Y139846D01*
X99985Y139913D01*
X100033Y139983D01*
X100077Y140054D01*
X100118Y140128D01*
X100156Y140203D01*
X100190Y140280D01*
X100221Y140358D01*
X100248Y140437D01*
X100272Y140518D01*
X100293Y140600D01*
X100309Y140682D01*
X100322Y140765D01*
X100332Y140849D01*
X100337Y140933D01*
X100339Y141017D01*
X99056Y142813D02*
X98892Y142891D01*
X98726Y142965D01*
X98558Y143034D01*
X98388Y143100D01*
X98217Y143162D01*
X98045Y143219D01*
X97871Y143273D01*
X97696Y143322D01*
X97520Y143367D01*
X97343Y143408D01*
X97165Y143445D01*
X96986Y143477D01*
X96807Y143505D01*
X96627Y143529D01*
X96446Y143548D01*
X96265Y143563D01*
X96083Y143574D01*
X95902Y143581D01*
X95720Y143583D01*
X99056Y142813D02*
X99135Y142784D01*
X99212Y142752D01*
X99289Y142716D01*
X99363Y142677D01*
X99436Y142634D01*
X99506Y142588D01*
X99575Y142540D01*
X99641Y142488D01*
X99705Y142433D01*
X99767Y142376D01*
X99825Y142316D01*
X99882Y142253D01*
X99935Y142188D01*
X99985Y142121D01*
X100033Y142051D01*
X100077Y141980D01*
X100118Y141906D01*
X100156Y141831D01*
X100190Y141754D01*
X100221Y141676D01*
X100248Y141597D01*
X100272Y141516D01*
X100293Y141434D01*
X100309Y141352D01*
X100322Y141269D01*
X100332Y141185D01*
X100337Y141101D01*
X100339Y141017D01*
X98286Y138964D02*
X93154Y143070D01*
D11*
X104220Y108180D02*
X104220Y105180D01*
X114220Y105180D02*
X114220Y108180D01*
X114220Y105180D02*
X104220Y105180D01*
D12*
X100339Y82890D02*
X100339Y79811D01*
X100339Y82890D02*
X100337Y82980D01*
X100331Y83069D01*
X100321Y83158D01*
X100308Y83246D01*
X100290Y83334D01*
X100269Y83421D01*
X100244Y83507D01*
X100215Y83592D01*
X100183Y83676D01*
X100147Y83758D01*
X100107Y83838D01*
X100064Y83917D01*
X100017Y83993D01*
X99968Y84068D01*
X99915Y84140D01*
X99859Y84210D01*
X99800Y84277D01*
X99738Y84342D01*
X99673Y84404D01*
X99606Y84463D01*
X99536Y84519D01*
X99464Y84572D01*
X99389Y84621D01*
X99313Y84668D01*
X99234Y84711D01*
X99154Y84751D01*
X99072Y84787D01*
X98988Y84819D01*
X98903Y84848D01*
X98817Y84873D01*
X98730Y84894D01*
X98642Y84912D01*
X98554Y84925D01*
X98465Y84935D01*
X98376Y84941D01*
X98286Y84943D01*
X97260Y84943D01*
X97170Y84941D01*
X97081Y84935D01*
X96992Y84925D01*
X96904Y84912D01*
X96816Y84894D01*
X96729Y84873D01*
X96643Y84848D01*
X96558Y84819D01*
X96474Y84787D01*
X96392Y84751D01*
X96312Y84711D01*
X96234Y84668D01*
X96157Y84621D01*
X96082Y84572D01*
X96010Y84519D01*
X95940Y84463D01*
X95873Y84404D01*
X95808Y84342D01*
X95746Y84277D01*
X95687Y84210D01*
X95631Y84140D01*
X95578Y84068D01*
X95529Y83993D01*
X95482Y83917D01*
X95439Y83838D01*
X95399Y83758D01*
X95363Y83676D01*
X95331Y83592D01*
X95302Y83507D01*
X95277Y83421D01*
X95256Y83334D01*
X95238Y83247D01*
X95225Y83158D01*
X95215Y83069D01*
X95209Y82980D01*
X95207Y82890D01*
X95207Y79811D01*
X91101Y79811D01*
X91101Y84943D01*
X95207Y88811D02*
X95207Y91890D01*
X95209Y91980D01*
X95215Y92069D01*
X95225Y92158D01*
X95238Y92247D01*
X95256Y92334D01*
X95277Y92421D01*
X95302Y92507D01*
X95331Y92592D01*
X95363Y92676D01*
X95399Y92758D01*
X95439Y92838D01*
X95482Y92917D01*
X95529Y92993D01*
X95578Y93068D01*
X95631Y93140D01*
X95687Y93210D01*
X95746Y93277D01*
X95808Y93342D01*
X95873Y93404D01*
X95940Y93463D01*
X96010Y93519D01*
X96082Y93572D01*
X96157Y93621D01*
X96234Y93668D01*
X96312Y93711D01*
X96392Y93751D01*
X96474Y93787D01*
X96558Y93819D01*
X96643Y93848D01*
X96729Y93873D01*
X96816Y93894D01*
X96904Y93912D01*
X96992Y93925D01*
X97081Y93935D01*
X97170Y93941D01*
X97260Y93943D01*
X97773Y93943D01*
X97872Y93941D01*
X97972Y93935D01*
X98071Y93926D01*
X98169Y93912D01*
X98267Y93895D01*
X98365Y93874D01*
X98461Y93849D01*
X98556Y93820D01*
X98651Y93788D01*
X98743Y93752D01*
X98835Y93713D01*
X98925Y93670D01*
X99013Y93624D01*
X99099Y93574D01*
X99183Y93521D01*
X99265Y93465D01*
X99345Y93405D01*
X99422Y93343D01*
X99497Y93277D01*
X99570Y93209D01*
X99639Y93138D01*
X99706Y93064D01*
X99770Y92988D01*
X99831Y92909D01*
X99889Y92828D01*
X99944Y92745D01*
X99995Y92660D01*
X100043Y92573D01*
X100088Y92484D01*
X100129Y92393D01*
X100167Y92301D01*
X100201Y92208D01*
X100231Y92113D01*
X100258Y92017D01*
X100281Y91920D01*
X100300Y91823D01*
X100315Y91724D01*
X100327Y91625D01*
X100335Y91526D01*
X100339Y91427D01*
X100339Y91327D01*
X100335Y91228D01*
X100327Y91129D01*
X100315Y91030D01*
X100300Y90931D01*
X100281Y90834D01*
X100258Y90737D01*
X100231Y90641D01*
X100201Y90546D01*
X100167Y90453D01*
X100129Y90361D01*
X100088Y90270D01*
X100043Y90181D01*
X99995Y90094D01*
X99944Y90009D01*
X99889Y89926D01*
X99831Y89845D01*
X99770Y89766D01*
X99706Y89690D01*
X99639Y89616D01*
X99570Y89545D01*
X99497Y89477D01*
X99422Y89411D01*
X99345Y89349D01*
X99265Y89289D01*
X99183Y89233D01*
X99099Y89180D01*
X99013Y89130D01*
X98925Y89084D01*
X98835Y89041D01*
X98743Y89002D01*
X98651Y88966D01*
X98556Y88934D01*
X98461Y88905D01*
X98365Y88880D01*
X98267Y88859D01*
X98169Y88842D01*
X98071Y88828D01*
X97972Y88819D01*
X97872Y88813D01*
X97773Y88811D01*
X95207Y88811D01*
X95081Y88813D01*
X94954Y88819D01*
X94828Y88829D01*
X94702Y88842D01*
X94577Y88860D01*
X94453Y88881D01*
X94329Y88906D01*
X94205Y88935D01*
X94083Y88968D01*
X93962Y89004D01*
X93842Y89044D01*
X93724Y89088D01*
X93607Y89136D01*
X93491Y89187D01*
X93377Y89241D01*
X93264Y89300D01*
X93154Y89361D01*
X93045Y89426D01*
X92939Y89494D01*
X92835Y89566D01*
X92733Y89640D01*
X92633Y89718D01*
X92536Y89799D01*
X92441Y89883D01*
X92349Y89969D01*
X92259Y90059D01*
X92173Y90151D01*
X92089Y90246D01*
X92008Y90343D01*
X91930Y90443D01*
X91856Y90545D01*
X91784Y90649D01*
X91716Y90755D01*
X91651Y90864D01*
X91590Y90974D01*
X91531Y91087D01*
X91477Y91201D01*
X91426Y91316D01*
X91378Y91434D01*
X91334Y91552D01*
X91294Y91672D01*
X91258Y91793D01*
X91225Y91915D01*
X91196Y92039D01*
X91171Y92162D01*
X91150Y92287D01*
X91132Y92412D01*
X91119Y92538D01*
X91109Y92664D01*
X91103Y92790D01*
X91101Y92917D01*
X100339Y97811D02*
X100339Y100890D01*
X100337Y100980D01*
X100331Y101069D01*
X100321Y101158D01*
X100308Y101246D01*
X100290Y101334D01*
X100269Y101421D01*
X100244Y101507D01*
X100215Y101592D01*
X100183Y101676D01*
X100147Y101758D01*
X100107Y101838D01*
X100064Y101917D01*
X100017Y101993D01*
X99968Y102068D01*
X99915Y102140D01*
X99859Y102210D01*
X99800Y102277D01*
X99738Y102342D01*
X99673Y102404D01*
X99606Y102463D01*
X99536Y102519D01*
X99464Y102572D01*
X99389Y102621D01*
X99313Y102668D01*
X99234Y102711D01*
X99154Y102751D01*
X99072Y102787D01*
X98988Y102819D01*
X98903Y102848D01*
X98817Y102873D01*
X98730Y102894D01*
X98642Y102912D01*
X98554Y102925D01*
X98465Y102935D01*
X98376Y102941D01*
X98286Y102943D01*
X97260Y102943D01*
X97170Y102941D01*
X97081Y102935D01*
X96992Y102925D01*
X96904Y102912D01*
X96816Y102894D01*
X96729Y102873D01*
X96643Y102848D01*
X96558Y102819D01*
X96474Y102787D01*
X96392Y102751D01*
X96312Y102711D01*
X96234Y102668D01*
X96157Y102621D01*
X96082Y102572D01*
X96010Y102519D01*
X95940Y102463D01*
X95873Y102404D01*
X95808Y102342D01*
X95746Y102277D01*
X95687Y102210D01*
X95631Y102140D01*
X95578Y102068D01*
X95529Y101993D01*
X95482Y101917D01*
X95439Y101838D01*
X95399Y101758D01*
X95363Y101676D01*
X95331Y101592D01*
X95302Y101507D01*
X95277Y101421D01*
X95256Y101334D01*
X95238Y101247D01*
X95225Y101158D01*
X95215Y101069D01*
X95209Y100980D01*
X95207Y100890D01*
X95207Y97811D01*
X91101Y97811D01*
X91101Y102943D01*
D10*
X168374Y185934D02*
X172866Y185934D01*
X168374Y185934D02*
X168374Y187182D01*
X168376Y187251D01*
X168382Y187319D01*
X168391Y187387D01*
X168404Y187455D01*
X168421Y187522D01*
X168442Y187587D01*
X168466Y187652D01*
X168493Y187715D01*
X168524Y187776D01*
X168559Y187836D01*
X168596Y187893D01*
X168637Y187949D01*
X168681Y188002D01*
X168727Y188052D01*
X168777Y188100D01*
X168829Y188145D01*
X168883Y188188D01*
X168939Y188227D01*
X168998Y188263D01*
X169058Y188296D01*
X169121Y188325D01*
X169184Y188351D01*
X169249Y188373D01*
X169316Y188392D01*
X169383Y188407D01*
X169451Y188418D01*
X169519Y188426D01*
X169588Y188430D01*
X169656Y188430D01*
X169725Y188426D01*
X169793Y188418D01*
X169861Y188407D01*
X169928Y188392D01*
X169995Y188373D01*
X170060Y188351D01*
X170123Y188325D01*
X170186Y188296D01*
X170246Y188263D01*
X170305Y188227D01*
X170361Y188188D01*
X170415Y188145D01*
X170467Y188100D01*
X170517Y188052D01*
X170563Y188002D01*
X170607Y187949D01*
X170648Y187893D01*
X170685Y187836D01*
X170720Y187776D01*
X170751Y187715D01*
X170778Y187652D01*
X170802Y187587D01*
X170823Y187522D01*
X170840Y187455D01*
X170853Y187387D01*
X170862Y187319D01*
X170868Y187251D01*
X170870Y187182D01*
X170870Y185934D01*
X170870Y187431D02*
X172866Y188430D01*
X169372Y190401D02*
X168374Y191649D01*
X172866Y191649D01*
X172866Y190401D02*
X172866Y192897D01*
D13*
X176620Y201880D02*
X176620Y214680D01*
X194220Y214680D02*
X194220Y201880D01*
D10*
X172866Y132594D02*
X168374Y132594D01*
X168374Y133842D01*
X168376Y133911D01*
X168382Y133979D01*
X168391Y134047D01*
X168404Y134115D01*
X168421Y134182D01*
X168442Y134247D01*
X168466Y134312D01*
X168493Y134375D01*
X168524Y134436D01*
X168559Y134496D01*
X168596Y134553D01*
X168637Y134609D01*
X168681Y134662D01*
X168727Y134712D01*
X168777Y134760D01*
X168829Y134805D01*
X168883Y134848D01*
X168939Y134887D01*
X168998Y134923D01*
X169058Y134956D01*
X169121Y134985D01*
X169184Y135011D01*
X169249Y135033D01*
X169316Y135052D01*
X169383Y135067D01*
X169451Y135078D01*
X169519Y135086D01*
X169588Y135090D01*
X169656Y135090D01*
X169725Y135086D01*
X169793Y135078D01*
X169861Y135067D01*
X169928Y135052D01*
X169995Y135033D01*
X170060Y135011D01*
X170123Y134985D01*
X170186Y134956D01*
X170246Y134923D01*
X170305Y134887D01*
X170361Y134848D01*
X170415Y134805D01*
X170467Y134760D01*
X170517Y134712D01*
X170563Y134662D01*
X170607Y134609D01*
X170648Y134553D01*
X170685Y134496D01*
X170720Y134436D01*
X170751Y134375D01*
X170778Y134312D01*
X170802Y134247D01*
X170823Y134182D01*
X170840Y134115D01*
X170853Y134047D01*
X170862Y133979D01*
X170868Y133911D01*
X170870Y133842D01*
X170870Y132594D01*
X170870Y134091D02*
X172866Y135090D01*
X169497Y139557D02*
X169432Y139555D01*
X169367Y139549D01*
X169302Y139540D01*
X169238Y139527D01*
X169175Y139510D01*
X169113Y139489D01*
X169052Y139465D01*
X168993Y139438D01*
X168936Y139407D01*
X168880Y139372D01*
X168826Y139335D01*
X168775Y139294D01*
X168726Y139251D01*
X168680Y139205D01*
X168637Y139156D01*
X168596Y139105D01*
X168559Y139051D01*
X168524Y138996D01*
X168493Y138938D01*
X168466Y138879D01*
X168442Y138818D01*
X168421Y138756D01*
X168404Y138693D01*
X168391Y138629D01*
X168382Y138564D01*
X168376Y138499D01*
X168374Y138434D01*
X168376Y138361D01*
X168381Y138289D01*
X168390Y138217D01*
X168403Y138146D01*
X168419Y138075D01*
X168439Y138005D01*
X168463Y137936D01*
X168489Y137869D01*
X168519Y137803D01*
X168553Y137738D01*
X168589Y137676D01*
X168629Y137615D01*
X168672Y137556D01*
X168717Y137500D01*
X168766Y137446D01*
X168817Y137394D01*
X168870Y137345D01*
X168926Y137299D01*
X168984Y137255D01*
X169045Y137215D01*
X169107Y137178D01*
X169171Y137144D01*
X169237Y137113D01*
X169304Y137085D01*
X169372Y137061D01*
X170370Y139182D02*
X170324Y139228D01*
X170276Y139271D01*
X170225Y139312D01*
X170172Y139350D01*
X170117Y139385D01*
X170060Y139416D01*
X170002Y139445D01*
X169942Y139471D01*
X169881Y139493D01*
X169819Y139512D01*
X169755Y139528D01*
X169691Y139540D01*
X169627Y139549D01*
X169562Y139554D01*
X169497Y139556D01*
X170370Y139182D02*
X172866Y137061D01*
X172866Y139557D01*
D13*
X176620Y148540D02*
X176620Y161340D01*
X194220Y161340D02*
X194220Y148540D01*
D10*
X172866Y76714D02*
X168374Y76714D01*
X168374Y77962D01*
X168376Y78031D01*
X168382Y78099D01*
X168391Y78167D01*
X168404Y78235D01*
X168421Y78302D01*
X168442Y78367D01*
X168466Y78432D01*
X168493Y78495D01*
X168524Y78556D01*
X168559Y78616D01*
X168596Y78673D01*
X168637Y78729D01*
X168681Y78782D01*
X168727Y78832D01*
X168777Y78880D01*
X168829Y78925D01*
X168883Y78968D01*
X168939Y79007D01*
X168998Y79043D01*
X169058Y79076D01*
X169121Y79105D01*
X169184Y79131D01*
X169249Y79153D01*
X169316Y79172D01*
X169383Y79187D01*
X169451Y79198D01*
X169519Y79206D01*
X169588Y79210D01*
X169656Y79210D01*
X169725Y79206D01*
X169793Y79198D01*
X169861Y79187D01*
X169928Y79172D01*
X169995Y79153D01*
X170060Y79131D01*
X170123Y79105D01*
X170186Y79076D01*
X170246Y79043D01*
X170305Y79007D01*
X170361Y78968D01*
X170415Y78925D01*
X170467Y78880D01*
X170517Y78832D01*
X170563Y78782D01*
X170607Y78729D01*
X170648Y78673D01*
X170685Y78616D01*
X170720Y78556D01*
X170751Y78495D01*
X170778Y78432D01*
X170802Y78367D01*
X170823Y78302D01*
X170840Y78235D01*
X170853Y78167D01*
X170862Y78099D01*
X170868Y78031D01*
X170870Y77962D01*
X170870Y76714D01*
X170870Y78211D02*
X172866Y79210D01*
X172866Y81181D02*
X172866Y82429D01*
X172864Y82498D01*
X172858Y82566D01*
X172849Y82634D01*
X172836Y82702D01*
X172819Y82769D01*
X172798Y82834D01*
X172774Y82899D01*
X172747Y82962D01*
X172716Y83023D01*
X172681Y83083D01*
X172644Y83140D01*
X172603Y83196D01*
X172559Y83249D01*
X172513Y83299D01*
X172463Y83347D01*
X172411Y83392D01*
X172357Y83435D01*
X172301Y83474D01*
X172242Y83510D01*
X172182Y83543D01*
X172119Y83572D01*
X172056Y83598D01*
X171991Y83620D01*
X171924Y83639D01*
X171857Y83654D01*
X171789Y83665D01*
X171721Y83673D01*
X171652Y83677D01*
X171584Y83677D01*
X171515Y83673D01*
X171447Y83665D01*
X171379Y83654D01*
X171312Y83639D01*
X171245Y83620D01*
X171180Y83598D01*
X171117Y83572D01*
X171054Y83543D01*
X170994Y83510D01*
X170935Y83474D01*
X170879Y83435D01*
X170825Y83392D01*
X170773Y83347D01*
X170723Y83299D01*
X170677Y83249D01*
X170633Y83196D01*
X170592Y83140D01*
X170555Y83083D01*
X170520Y83023D01*
X170489Y82962D01*
X170462Y82899D01*
X170438Y82834D01*
X170417Y82769D01*
X170400Y82702D01*
X170387Y82634D01*
X170378Y82566D01*
X170372Y82498D01*
X170370Y82429D01*
X168374Y82678D02*
X168374Y81181D01*
X168374Y82678D02*
X168376Y82739D01*
X168382Y82801D01*
X168391Y82861D01*
X168404Y82921D01*
X168421Y82981D01*
X168441Y83039D01*
X168465Y83095D01*
X168493Y83150D01*
X168523Y83203D01*
X168557Y83255D01*
X168594Y83304D01*
X168634Y83350D01*
X168677Y83394D01*
X168723Y83436D01*
X168771Y83474D01*
X168821Y83510D01*
X168873Y83542D01*
X168927Y83571D01*
X168983Y83597D01*
X169040Y83619D01*
X169099Y83638D01*
X169158Y83653D01*
X169219Y83664D01*
X169280Y83672D01*
X169341Y83676D01*
X169403Y83676D01*
X169464Y83672D01*
X169525Y83664D01*
X169586Y83653D01*
X169645Y83638D01*
X169704Y83619D01*
X169761Y83597D01*
X169817Y83571D01*
X169871Y83542D01*
X169923Y83510D01*
X169973Y83474D01*
X170021Y83436D01*
X170067Y83394D01*
X170110Y83350D01*
X170150Y83304D01*
X170187Y83255D01*
X170221Y83203D01*
X170251Y83150D01*
X170279Y83095D01*
X170303Y83039D01*
X170323Y82981D01*
X170340Y82921D01*
X170353Y82861D01*
X170362Y82801D01*
X170368Y82739D01*
X170370Y82678D01*
X170370Y81680D01*
D13*
X176620Y92660D02*
X176620Y105460D01*
X194220Y105460D02*
X194220Y92660D01*
D10*
X56026Y185934D02*
X51534Y185934D01*
X51534Y187182D01*
X51536Y187251D01*
X51542Y187319D01*
X51551Y187387D01*
X51564Y187455D01*
X51581Y187522D01*
X51602Y187587D01*
X51626Y187652D01*
X51653Y187715D01*
X51684Y187776D01*
X51719Y187836D01*
X51756Y187893D01*
X51797Y187949D01*
X51841Y188002D01*
X51887Y188052D01*
X51937Y188100D01*
X51989Y188145D01*
X52043Y188188D01*
X52099Y188227D01*
X52158Y188263D01*
X52218Y188296D01*
X52281Y188325D01*
X52344Y188351D01*
X52409Y188373D01*
X52476Y188392D01*
X52543Y188407D01*
X52611Y188418D01*
X52679Y188426D01*
X52748Y188430D01*
X52816Y188430D01*
X52885Y188426D01*
X52953Y188418D01*
X53021Y188407D01*
X53088Y188392D01*
X53155Y188373D01*
X53220Y188351D01*
X53283Y188325D01*
X53346Y188296D01*
X53406Y188263D01*
X53465Y188227D01*
X53521Y188188D01*
X53575Y188145D01*
X53627Y188100D01*
X53677Y188052D01*
X53723Y188002D01*
X53767Y187949D01*
X53808Y187893D01*
X53845Y187836D01*
X53880Y187776D01*
X53911Y187715D01*
X53938Y187652D01*
X53962Y187587D01*
X53983Y187522D01*
X54000Y187455D01*
X54013Y187387D01*
X54022Y187319D01*
X54028Y187251D01*
X54030Y187182D01*
X54030Y185934D01*
X54030Y187431D02*
X56026Y188430D01*
X55028Y190401D02*
X51534Y191399D01*
X55028Y190401D02*
X55028Y192897D01*
X54030Y192148D02*
X56026Y192148D01*
D13*
X59780Y201880D02*
X59780Y214680D01*
X77380Y214680D02*
X77380Y201880D01*
D10*
X56026Y132594D02*
X51534Y132594D01*
X51534Y133842D01*
X51536Y133911D01*
X51542Y133979D01*
X51551Y134047D01*
X51564Y134115D01*
X51581Y134182D01*
X51602Y134247D01*
X51626Y134312D01*
X51653Y134375D01*
X51684Y134436D01*
X51719Y134496D01*
X51756Y134553D01*
X51797Y134609D01*
X51841Y134662D01*
X51887Y134712D01*
X51937Y134760D01*
X51989Y134805D01*
X52043Y134848D01*
X52099Y134887D01*
X52158Y134923D01*
X52218Y134956D01*
X52281Y134985D01*
X52344Y135011D01*
X52409Y135033D01*
X52476Y135052D01*
X52543Y135067D01*
X52611Y135078D01*
X52679Y135086D01*
X52748Y135090D01*
X52816Y135090D01*
X52885Y135086D01*
X52953Y135078D01*
X53021Y135067D01*
X53088Y135052D01*
X53155Y135033D01*
X53220Y135011D01*
X53283Y134985D01*
X53346Y134956D01*
X53406Y134923D01*
X53465Y134887D01*
X53521Y134848D01*
X53575Y134805D01*
X53627Y134760D01*
X53677Y134712D01*
X53723Y134662D01*
X53767Y134609D01*
X53808Y134553D01*
X53845Y134496D01*
X53880Y134436D01*
X53911Y134375D01*
X53938Y134312D01*
X53962Y134247D01*
X53983Y134182D01*
X54000Y134115D01*
X54013Y134047D01*
X54022Y133979D01*
X54028Y133911D01*
X54030Y133842D01*
X54030Y132594D01*
X54030Y134091D02*
X56026Y135090D01*
X56026Y137061D02*
X56026Y138558D01*
X56024Y138618D01*
X56019Y138678D01*
X56010Y138738D01*
X55997Y138797D01*
X55981Y138855D01*
X55961Y138912D01*
X55938Y138968D01*
X55912Y139022D01*
X55882Y139074D01*
X55849Y139125D01*
X55814Y139173D01*
X55775Y139220D01*
X55734Y139264D01*
X55690Y139305D01*
X55643Y139344D01*
X55595Y139379D01*
X55544Y139412D01*
X55492Y139442D01*
X55438Y139468D01*
X55382Y139491D01*
X55325Y139511D01*
X55267Y139527D01*
X55208Y139540D01*
X55148Y139549D01*
X55088Y139554D01*
X55028Y139556D01*
X55028Y139557D02*
X54529Y139557D01*
X54529Y139556D02*
X54466Y139554D01*
X54404Y139548D01*
X54342Y139538D01*
X54281Y139525D01*
X54221Y139507D01*
X54162Y139486D01*
X54104Y139461D01*
X54048Y139433D01*
X53994Y139401D01*
X53942Y139365D01*
X53893Y139327D01*
X53846Y139286D01*
X53802Y139241D01*
X53760Y139194D01*
X53722Y139145D01*
X53686Y139093D01*
X53654Y139039D01*
X53626Y138983D01*
X53601Y138925D01*
X53580Y138866D01*
X53562Y138806D01*
X53549Y138745D01*
X53539Y138683D01*
X53533Y138621D01*
X53531Y138558D01*
X53530Y138558D02*
X53530Y137061D01*
X51534Y137061D01*
X51534Y139557D01*
D13*
X59780Y148540D02*
X59780Y161340D01*
X77380Y161340D02*
X77380Y148540D01*
D10*
X56026Y76714D02*
X51534Y76714D01*
X51534Y77962D01*
X51536Y78031D01*
X51542Y78099D01*
X51551Y78167D01*
X51564Y78235D01*
X51581Y78302D01*
X51602Y78367D01*
X51626Y78432D01*
X51653Y78495D01*
X51684Y78556D01*
X51719Y78616D01*
X51756Y78673D01*
X51797Y78729D01*
X51841Y78782D01*
X51887Y78832D01*
X51937Y78880D01*
X51989Y78925D01*
X52043Y78968D01*
X52099Y79007D01*
X52158Y79043D01*
X52218Y79076D01*
X52281Y79105D01*
X52344Y79131D01*
X52409Y79153D01*
X52476Y79172D01*
X52543Y79187D01*
X52611Y79198D01*
X52679Y79206D01*
X52748Y79210D01*
X52816Y79210D01*
X52885Y79206D01*
X52953Y79198D01*
X53021Y79187D01*
X53088Y79172D01*
X53155Y79153D01*
X53220Y79131D01*
X53283Y79105D01*
X53346Y79076D01*
X53406Y79043D01*
X53465Y79007D01*
X53521Y78968D01*
X53575Y78925D01*
X53627Y78880D01*
X53677Y78832D01*
X53723Y78782D01*
X53767Y78729D01*
X53808Y78673D01*
X53845Y78616D01*
X53880Y78556D01*
X53911Y78495D01*
X53938Y78432D01*
X53962Y78367D01*
X53983Y78302D01*
X54000Y78235D01*
X54013Y78167D01*
X54022Y78099D01*
X54028Y78031D01*
X54030Y77962D01*
X54030Y76714D01*
X54030Y78211D02*
X56026Y79210D01*
X53530Y81181D02*
X53530Y82678D01*
X53531Y82678D02*
X53533Y82738D01*
X53538Y82798D01*
X53547Y82858D01*
X53560Y82917D01*
X53576Y82975D01*
X53596Y83032D01*
X53619Y83088D01*
X53645Y83142D01*
X53675Y83194D01*
X53708Y83245D01*
X53743Y83293D01*
X53782Y83340D01*
X53823Y83384D01*
X53867Y83425D01*
X53914Y83464D01*
X53962Y83499D01*
X54013Y83532D01*
X54065Y83562D01*
X54119Y83588D01*
X54175Y83611D01*
X54232Y83631D01*
X54290Y83647D01*
X54349Y83660D01*
X54409Y83669D01*
X54469Y83674D01*
X54529Y83676D01*
X54529Y83677D02*
X54778Y83677D01*
X54847Y83675D01*
X54915Y83669D01*
X54983Y83660D01*
X55051Y83647D01*
X55118Y83630D01*
X55183Y83609D01*
X55248Y83585D01*
X55311Y83558D01*
X55372Y83527D01*
X55432Y83492D01*
X55489Y83455D01*
X55545Y83414D01*
X55598Y83370D01*
X55648Y83324D01*
X55696Y83274D01*
X55741Y83222D01*
X55784Y83168D01*
X55823Y83112D01*
X55859Y83053D01*
X55892Y82993D01*
X55921Y82930D01*
X55947Y82867D01*
X55969Y82802D01*
X55988Y82735D01*
X56003Y82668D01*
X56014Y82600D01*
X56022Y82532D01*
X56026Y82463D01*
X56026Y82395D01*
X56022Y82326D01*
X56014Y82258D01*
X56003Y82190D01*
X55988Y82123D01*
X55969Y82056D01*
X55947Y81991D01*
X55921Y81928D01*
X55892Y81865D01*
X55859Y81805D01*
X55823Y81746D01*
X55784Y81690D01*
X55741Y81636D01*
X55696Y81584D01*
X55648Y81534D01*
X55598Y81488D01*
X55545Y81444D01*
X55489Y81403D01*
X55432Y81366D01*
X55372Y81331D01*
X55311Y81300D01*
X55248Y81273D01*
X55183Y81249D01*
X55118Y81228D01*
X55051Y81211D01*
X54983Y81198D01*
X54915Y81189D01*
X54847Y81183D01*
X54778Y81181D01*
X53530Y81181D01*
X53443Y81183D01*
X53356Y81189D01*
X53269Y81198D01*
X53183Y81211D01*
X53098Y81228D01*
X53013Y81249D01*
X52930Y81273D01*
X52847Y81301D01*
X52766Y81333D01*
X52686Y81368D01*
X52608Y81407D01*
X52532Y81449D01*
X52457Y81494D01*
X52385Y81542D01*
X52314Y81594D01*
X52246Y81648D01*
X52181Y81706D01*
X52118Y81766D01*
X52058Y81829D01*
X52000Y81894D01*
X51946Y81962D01*
X51894Y82033D01*
X51846Y82105D01*
X51801Y82179D01*
X51759Y82256D01*
X51720Y82334D01*
X51685Y82414D01*
X51653Y82495D01*
X51625Y82577D01*
X51601Y82661D01*
X51580Y82746D01*
X51563Y82831D01*
X51550Y82917D01*
X51541Y83004D01*
X51535Y83091D01*
X51533Y83178D01*
D13*
X59780Y92660D02*
X59780Y105460D01*
X77380Y105460D02*
X77380Y92660D01*
D14*
X85090Y63500D02*
X97790Y63500D01*
X104140Y57150D01*
X110490Y63500D01*
X123190Y63500D01*
X129540Y57150D01*
X85090Y63500D02*
X78740Y57150D01*
X129540Y57150D02*
X135890Y63500D01*
X148590Y63500D01*
X154940Y57150D01*
X161290Y63500D02*
X173990Y63500D01*
X161290Y63500D02*
X154940Y57150D01*
X173990Y63500D02*
X180340Y57150D01*
X180340Y19050D01*
X104140Y19050D02*
X97790Y12700D01*
X123190Y12700D02*
X129540Y19050D01*
X123190Y12700D02*
X110490Y12700D01*
X104140Y19050D01*
X78740Y19050D02*
X78740Y57150D01*
X78740Y19050D02*
X85090Y12700D01*
X97790Y12700D01*
X148590Y12700D02*
X154940Y19050D01*
X148590Y12700D02*
X135890Y12700D01*
X129540Y19050D01*
X154940Y19050D02*
X161290Y12700D01*
X173990Y12700D01*
X180340Y19050D01*
D13*
X90170Y8255D02*
X86995Y5715D01*
X90170Y8255D02*
X90170Y-3175D01*
X86995Y-3175D02*
X93345Y-3175D01*
X84455Y67945D02*
X81915Y67945D01*
X81815Y67947D01*
X81716Y67953D01*
X81616Y67963D01*
X81518Y67976D01*
X81419Y67994D01*
X81322Y68015D01*
X81226Y68040D01*
X81130Y68069D01*
X81036Y68102D01*
X80943Y68138D01*
X80852Y68178D01*
X80762Y68222D01*
X80674Y68269D01*
X80588Y68319D01*
X80504Y68373D01*
X80422Y68430D01*
X80343Y68490D01*
X80265Y68554D01*
X80191Y68620D01*
X80119Y68689D01*
X80050Y68761D01*
X79984Y68835D01*
X79920Y68913D01*
X79860Y68992D01*
X79803Y69074D01*
X79749Y69158D01*
X79699Y69244D01*
X79652Y69332D01*
X79608Y69422D01*
X79568Y69513D01*
X79532Y69606D01*
X79499Y69700D01*
X79470Y69796D01*
X79445Y69892D01*
X79424Y69989D01*
X79406Y70088D01*
X79393Y70186D01*
X79383Y70286D01*
X79377Y70385D01*
X79375Y70485D01*
X79375Y76835D01*
X79377Y76935D01*
X79383Y77034D01*
X79393Y77134D01*
X79406Y77232D01*
X79424Y77331D01*
X79445Y77428D01*
X79470Y77524D01*
X79499Y77620D01*
X79532Y77714D01*
X79568Y77807D01*
X79608Y77898D01*
X79652Y77988D01*
X79699Y78076D01*
X79749Y78162D01*
X79803Y78246D01*
X79860Y78328D01*
X79920Y78407D01*
X79984Y78485D01*
X80050Y78559D01*
X80119Y78631D01*
X80191Y78700D01*
X80265Y78766D01*
X80343Y78830D01*
X80422Y78890D01*
X80504Y78947D01*
X80588Y79001D01*
X80674Y79051D01*
X80762Y79098D01*
X80852Y79142D01*
X80943Y79182D01*
X81036Y79218D01*
X81130Y79251D01*
X81226Y79280D01*
X81322Y79305D01*
X81419Y79326D01*
X81518Y79344D01*
X81616Y79357D01*
X81716Y79367D01*
X81815Y79373D01*
X81915Y79375D01*
X84455Y79375D01*
X168275Y71120D02*
X168277Y71231D01*
X168283Y71341D01*
X168292Y71452D01*
X168306Y71562D01*
X168323Y71671D01*
X168344Y71780D01*
X168369Y71888D01*
X168398Y71995D01*
X168430Y72101D01*
X168466Y72206D01*
X168506Y72309D01*
X168549Y72411D01*
X168596Y72512D01*
X168647Y72611D01*
X168700Y72707D01*
X168757Y72802D01*
X168818Y72895D01*
X168881Y72986D01*
X168948Y73075D01*
X169018Y73161D01*
X169091Y73244D01*
X169166Y73326D01*
X169244Y73404D01*
X169326Y73479D01*
X169409Y73552D01*
X169495Y73622D01*
X169584Y73689D01*
X169675Y73752D01*
X169768Y73813D01*
X169863Y73870D01*
X169959Y73923D01*
X170058Y73974D01*
X170159Y74021D01*
X170261Y74064D01*
X170364Y74104D01*
X170469Y74140D01*
X170575Y74172D01*
X170682Y74201D01*
X170790Y74226D01*
X170899Y74247D01*
X171008Y74264D01*
X171118Y74278D01*
X171229Y74287D01*
X171339Y74293D01*
X171450Y74295D01*
X171561Y74293D01*
X171671Y74287D01*
X171782Y74278D01*
X171892Y74264D01*
X172001Y74247D01*
X172110Y74226D01*
X172218Y74201D01*
X172325Y74172D01*
X172431Y74140D01*
X172536Y74104D01*
X172639Y74064D01*
X172741Y74021D01*
X172842Y73974D01*
X172941Y73923D01*
X173038Y73870D01*
X173132Y73813D01*
X173225Y73752D01*
X173316Y73689D01*
X173405Y73622D01*
X173491Y73552D01*
X173574Y73479D01*
X173656Y73404D01*
X173734Y73326D01*
X173809Y73244D01*
X173882Y73161D01*
X173952Y73075D01*
X174019Y72986D01*
X174082Y72895D01*
X174143Y72802D01*
X174200Y72708D01*
X174253Y72611D01*
X174304Y72512D01*
X174351Y72411D01*
X174394Y72309D01*
X174434Y72206D01*
X174470Y72101D01*
X174502Y71995D01*
X174531Y71888D01*
X174556Y71780D01*
X174577Y71671D01*
X174594Y71562D01*
X174608Y71452D01*
X174617Y71341D01*
X174623Y71231D01*
X174625Y71120D01*
X174623Y71009D01*
X174617Y70899D01*
X174608Y70788D01*
X174594Y70678D01*
X174577Y70569D01*
X174556Y70460D01*
X174531Y70352D01*
X174502Y70245D01*
X174470Y70139D01*
X174434Y70034D01*
X174394Y69931D01*
X174351Y69829D01*
X174304Y69728D01*
X174253Y69629D01*
X174200Y69532D01*
X174143Y69438D01*
X174082Y69345D01*
X174019Y69254D01*
X173952Y69165D01*
X173882Y69079D01*
X173809Y68996D01*
X173734Y68914D01*
X173656Y68836D01*
X173574Y68761D01*
X173491Y68688D01*
X173405Y68618D01*
X173316Y68551D01*
X173225Y68488D01*
X173132Y68427D01*
X173037Y68370D01*
X172941Y68317D01*
X172842Y68266D01*
X172741Y68219D01*
X172639Y68176D01*
X172536Y68136D01*
X172431Y68100D01*
X172325Y68068D01*
X172218Y68039D01*
X172110Y68014D01*
X172001Y67993D01*
X171892Y67976D01*
X171782Y67962D01*
X171671Y67953D01*
X171561Y67947D01*
X171450Y67945D01*
X171339Y67947D01*
X171229Y67953D01*
X171118Y67962D01*
X171008Y67976D01*
X170899Y67993D01*
X170790Y68014D01*
X170682Y68039D01*
X170575Y68068D01*
X170469Y68100D01*
X170364Y68136D01*
X170261Y68176D01*
X170159Y68219D01*
X170058Y68266D01*
X169959Y68317D01*
X169863Y68370D01*
X169768Y68427D01*
X169675Y68488D01*
X169584Y68551D01*
X169495Y68618D01*
X169409Y68688D01*
X169326Y68761D01*
X169244Y68836D01*
X169166Y68914D01*
X169091Y68996D01*
X169018Y69079D01*
X168948Y69165D01*
X168881Y69254D01*
X168818Y69345D01*
X168757Y69438D01*
X168700Y69533D01*
X168647Y69629D01*
X168596Y69728D01*
X168549Y69829D01*
X168506Y69931D01*
X168466Y70034D01*
X168430Y70139D01*
X168398Y70245D01*
X168369Y70352D01*
X168344Y70460D01*
X168323Y70569D01*
X168306Y70678D01*
X168292Y70788D01*
X168283Y70899D01*
X168277Y71009D01*
X168275Y71120D01*
X168910Y76835D02*
X168912Y76935D01*
X168918Y77034D01*
X168928Y77134D01*
X168941Y77232D01*
X168959Y77331D01*
X168980Y77428D01*
X169005Y77524D01*
X169034Y77620D01*
X169067Y77714D01*
X169103Y77807D01*
X169143Y77898D01*
X169187Y77988D01*
X169234Y78076D01*
X169284Y78162D01*
X169338Y78246D01*
X169395Y78328D01*
X169455Y78407D01*
X169519Y78485D01*
X169585Y78559D01*
X169654Y78631D01*
X169726Y78700D01*
X169800Y78766D01*
X169878Y78830D01*
X169957Y78890D01*
X170039Y78947D01*
X170123Y79001D01*
X170209Y79051D01*
X170297Y79098D01*
X170387Y79142D01*
X170478Y79182D01*
X170571Y79218D01*
X170665Y79251D01*
X170761Y79280D01*
X170857Y79305D01*
X170954Y79326D01*
X171053Y79344D01*
X171151Y79357D01*
X171251Y79367D01*
X171350Y79373D01*
X171450Y79375D01*
X171550Y79373D01*
X171649Y79367D01*
X171749Y79357D01*
X171847Y79344D01*
X171946Y79326D01*
X172043Y79305D01*
X172139Y79280D01*
X172235Y79251D01*
X172329Y79218D01*
X172422Y79182D01*
X172513Y79142D01*
X172603Y79098D01*
X172691Y79051D01*
X172777Y79001D01*
X172861Y78947D01*
X172943Y78890D01*
X173022Y78830D01*
X173100Y78766D01*
X173174Y78700D01*
X173246Y78631D01*
X173315Y78559D01*
X173381Y78485D01*
X173445Y78407D01*
X173505Y78328D01*
X173562Y78246D01*
X173616Y78162D01*
X173666Y78076D01*
X173713Y77988D01*
X173757Y77898D01*
X173797Y77807D01*
X173833Y77714D01*
X173866Y77620D01*
X173895Y77524D01*
X173920Y77428D01*
X173941Y77331D01*
X173959Y77232D01*
X173972Y77134D01*
X173982Y77034D01*
X173988Y76935D01*
X173990Y76835D01*
X173988Y76735D01*
X173982Y76636D01*
X173972Y76536D01*
X173959Y76438D01*
X173941Y76339D01*
X173920Y76242D01*
X173895Y76146D01*
X173866Y76050D01*
X173833Y75956D01*
X173797Y75863D01*
X173757Y75772D01*
X173713Y75682D01*
X173666Y75594D01*
X173616Y75508D01*
X173562Y75424D01*
X173505Y75342D01*
X173445Y75263D01*
X173381Y75185D01*
X173315Y75111D01*
X173246Y75039D01*
X173174Y74970D01*
X173100Y74904D01*
X173022Y74840D01*
X172943Y74780D01*
X172861Y74723D01*
X172777Y74669D01*
X172691Y74619D01*
X172603Y74572D01*
X172513Y74528D01*
X172422Y74488D01*
X172329Y74452D01*
X172235Y74419D01*
X172139Y74390D01*
X172043Y74365D01*
X171946Y74344D01*
X171847Y74326D01*
X171749Y74313D01*
X171649Y74303D01*
X171550Y74297D01*
X171450Y74295D01*
X171350Y74297D01*
X171251Y74303D01*
X171151Y74313D01*
X171053Y74326D01*
X170954Y74344D01*
X170857Y74365D01*
X170761Y74390D01*
X170665Y74419D01*
X170571Y74452D01*
X170478Y74488D01*
X170387Y74528D01*
X170297Y74572D01*
X170209Y74619D01*
X170123Y74669D01*
X170039Y74723D01*
X169957Y74780D01*
X169878Y74840D01*
X169800Y74904D01*
X169726Y74970D01*
X169654Y75039D01*
X169585Y75111D01*
X169519Y75185D01*
X169455Y75263D01*
X169395Y75342D01*
X169338Y75424D01*
X169284Y75508D01*
X169234Y75594D01*
X169187Y75682D01*
X169143Y75772D01*
X169103Y75863D01*
X169067Y75956D01*
X169034Y76050D01*
X169005Y76146D01*
X168980Y76242D01*
X168959Y76339D01*
X168941Y76438D01*
X168928Y76536D01*
X168918Y76636D01*
X168912Y76735D01*
X168910Y76835D01*
M02*
